<?xml version="1.0" encoding="UTF-8" standalone="no"?>
<!DOCTYPE svg PUBLIC "-//W3C//DTD SVG 1.1//EN" "http://www.w3.org/Graphics/SVG/1.1/DTD/svg11.dtd">
<svg width="100%" height="100%" viewBox="0 0 440 416" version="1.1" xmlns="http://www.w3.org/2000/svg" xmlns:xlink="http://www.w3.org/1999/xlink" xml:space="preserve" xmlns:serif="http://www.serif.com/" style="fill-rule:evenodd;clip-rule:evenodd;stroke-miterlimit:2;">
    <g transform="matrix(1,0,0,1,-30.063,-42.337)">
        <path d="M50.09,169.462C58.361,149.98 72.26,123.52 88.173,109.565C109.996,90.428 131.35,82.177 152.508,81.631C196.695,80.491 229.173,93.9 237.685,132.55C241.554,150.12 235.989,162.482 235.877,180.473C235.764,198.463 229.794,219.155 241.589,232.741C258.189,251.863 287.109,253.715 312.238,250.592C337.367,247.469 363.297,240.896 387.509,248.31C424.106,259.516 452.308,307.264 445.617,344.949C438.925,382.634 419.887,421.749 385.18,437.885C350.474,454.022 292.701,455.942 253.542,456.395L210.482,454.185C143.042,445.506 89.918,414.538 59.414,360.057C28.909,305.577 23.376,232.382 50.09,169.462Z" style="fill:rgb(212,239,252);fill-rule:nonzero;"/>
        <path d="M330.136,113.319C330.136,139.539 353.342,160.794 381.968,160.794C410.594,160.794 433.799,139.539 433.799,113.319C433.799,87.1 410.594,65.845 381.968,65.845C353.342,65.845 330.136,87.1 330.136,113.319Z" style="fill:rgb(212,239,252);fill-rule:nonzero;"/>
        <path d="M371.215,455.552C365.177,449.674 345.448,431.127 355.085,415.674C367.245,396.173 389.079,407.43 384.323,384.328C379.567,361.226 375.989,349.147 399.143,339.419C422.297,329.692 413.4,320.425 415.363,307.157C417.908,289.954 436.63,276.894 457.462,284.034C473.531,289.541 470.468,321.568 459.499,330.888C448.529,340.208 471.855,348.302 462.326,370.576C452.797,392.848 428.877,385.09 430.592,402.447C431.015,406.715 438.173,426.75 433.511,438.361C431.174,444.18 426.198,450.213 416.521,455.213" style="fill:none;stroke:rgb(101,202,244);stroke-width:1px;"/>
        <path d="M380.507,455.403C382.402,451.031 384.304,446.663 386.208,442.294C390.932,431.452 395.673,420.617 400.432,409.79C406.486,396.019 412.567,382.259 418.697,368.522C424.614,355.26 430.569,342.014 436.644,328.824C440.925,319.528 445.189,310.202 449.884,301.105C450.244,300.409 450.607,299.714 450.977,299.024C451.206,298.598 450.558,298.219 450.33,298.645C445.87,306.97 441.946,315.598 437.975,324.163C431.984,337.084 426.131,350.07 420.315,363.071C414.117,376.928 407.972,390.808 401.857,404.702C396.865,416.042 391.894,427.391 386.941,438.748C385.352,442.389 383.766,446.032 382.183,449.674C381.448,451.365 380.562,453.058 379.957,454.801C379.93,454.877 379.892,454.951 379.86,455.024C379.67,455.462 380.316,455.845 380.507,455.403Z" style="fill:rgb(101,202,244);fill-rule:nonzero;"/>
        <path d="M423.466,357.681C432.618,357.175 441.77,356.668 450.922,356.163C452.244,356.089 453.565,356.016 454.887,355.943C455.367,355.916 455.37,355.166 454.887,355.193C445.735,355.7 436.584,356.206 427.431,356.712C426.11,356.785 424.788,356.858 423.466,356.931C422.986,356.957 422.983,357.708 423.466,357.681Z" style="fill:rgb(101,202,244);fill-rule:nonzero;"/>
        <path d="M391.741,429.247C401.93,428.1 412.12,426.954 422.309,425.808C423.774,425.643 425.238,425.479 426.703,425.314C427.177,425.26 427.182,424.51 426.703,424.564C416.513,425.709 406.323,426.856 396.133,428.002C394.67,428.166 393.205,428.331 391.741,428.497C391.266,428.549 391.26,429.3 391.741,429.247Z" style="fill:rgb(101,202,244);fill-rule:nonzero;"/>
        <path d="M389.051,350.813C391.13,355.48 393.21,360.147 395.288,364.813C398.602,372.251 401.916,379.691 405.23,387.129C405.991,388.837 406.753,390.546 407.513,392.254C407.71,392.695 408.356,392.314 408.161,391.876C406.082,387.209 404.003,382.543 401.924,377.876C398.61,370.438 395.297,362.998 391.982,355.56C391.221,353.852 390.46,352.143 389.699,350.435C389.503,349.995 388.856,350.375 389.051,350.813Z" style="fill:rgb(101,202,244);fill-rule:nonzero;"/>
        <path d="M434.131,303.355C432.594,305.612 429.92,306.469 428.156,305.268C426.392,304.068 426.209,301.265 427.745,299.007C429.281,296.75 431.957,295.893 433.72,297.094C435.484,298.294 435.668,301.097 434.131,303.355Z" style="fill:rgb(101,202,244);fill-rule:nonzero;"/>
        <path d="M435.258,315.559C435.258,316.752 434.292,317.719 433.098,317.719C431.905,317.719 430.938,316.752 430.938,315.559C430.938,314.366 431.905,313.399 433.098,313.399C434.292,313.399 435.258,314.366 435.258,315.559Z" style="fill:rgb(101,202,244);fill-rule:nonzero;"/>
        <path d="M450.922,371.278C450.922,373.595 449.042,375.475 446.724,375.475C444.406,375.475 442.526,373.595 442.526,371.278C442.526,368.959 444.406,367.08 446.724,367.08C449.042,367.08 450.922,368.959 450.922,371.278Z" style="fill:rgb(101,202,244);fill-rule:nonzero;"/>
        <path d="M87.221,455.397C81.399,455.61 57.868,460.779 58.253,441.629C58.449,431.85 55.598,432.205 49.867,428.372C44.136,424.539 44.275,422.088 44.777,416.616C45.279,411.143 39.824,413.793 36.191,406.597C31.844,397.988 37.078,391.564 45.525,390.018C53.971,388.472 53.726,397.583 57.083,400.299C60.441,403.015 65.082,397.175 71.533,405.093C75.744,410.263 69.205,422.056 75.4,420.957" style="fill:white;fill-rule:nonzero;"/>
        <path d="M87.221,455.397C81.399,455.61 57.868,460.779 58.253,441.629C58.449,431.85 55.598,432.205 49.867,428.372C44.136,424.539 44.275,422.088 44.777,416.616C45.279,411.143 39.824,413.793 36.191,406.597C31.844,397.988 37.078,391.564 45.525,390.018C53.971,388.472 53.726,397.583 57.083,400.299C60.441,403.015 65.082,397.175 71.533,405.093C75.744,410.263 69.205,422.056 75.4,420.957" style="fill:none;stroke:rgb(101,202,244);stroke-width:1px;"/>
        <path d="M76.165,438.336C67.91,427.183 59.194,416.375 50.086,405.909C49.451,405.179 48.394,406.244 49.025,406.969C58.049,417.34 66.691,428.043 74.87,439.093C75.438,439.861 76.74,439.114 76.165,438.336Z" style="fill:rgb(101,202,244);fill-rule:nonzero;"/>
        <path d="M62.101,405.421C61.796,409.979 61.492,414.536 61.187,419.093C61.144,419.737 61.101,420.38 61.058,421.024C61.308,420.774 61.558,420.524 61.808,420.274C57.627,420.621 53.446,420.966 49.265,421.313C48.31,421.392 48.302,422.893 49.265,422.813C53.446,422.466 57.627,422.121 61.808,421.774C62.234,421.739 62.529,421.457 62.558,421.024C62.862,416.467 63.167,411.91 63.472,407.353C63.515,406.708 63.558,406.065 63.601,405.421C63.665,404.458 62.165,404.462 62.101,405.421Z" style="fill:rgb(101,202,244);fill-rule:nonzero;"/>
        <path d="M49.681,342.15C39.196,333.61 36.689,307.228 51.628,299.218C70.098,289.314 89.433,304.642 91.865,320.405C93.741,332.564 85.238,341.055 107.368,349.968C129.498,358.881 126.079,369.949 121.533,391.118C116.987,412.286 131.943,404.525 143.566,422.393C152.776,436.552 139.832,450.995 134.062,456.38L88.796,456.16C87.33,455.295 85.924,454.331 84.603,453.251C69.985,441.303 75.766,422.42 77.309,407.719C79.414,387.657 56.086,398.925 46.978,378.516C37.871,358.108 60.166,350.691 49.681,342.15Z" style="fill:white;fill-rule:nonzero;"/>
        <path d="M49.681,342.15C39.196,333.61 36.689,307.228 51.628,299.218C70.098,289.314 89.433,304.642 91.865,320.405C93.741,332.564 85.238,341.055 107.368,349.968C129.498,358.881 126.079,369.949 121.533,391.118C116.987,412.286 131.943,404.525 143.566,422.393C152.776,436.552 139.832,450.995 134.062,456.38L88.796,456.16C87.33,455.295 85.924,454.331 84.603,453.251C69.985,441.303 75.766,422.42 77.309,407.719C79.414,387.657 56.086,398.925 46.978,378.516C37.871,358.108 60.166,350.691 49.681,342.15Z" style="fill:none;stroke:rgb(101,202,244);stroke-width:1px;"/>
        <path d="M126.137,455.692C124.318,451.666 122.492,447.646 120.664,443.624C116.164,433.724 111.648,423.831 107.115,413.946C101.316,401.295 95.488,388.658 89.616,376.041C83.965,363.899 78.278,351.772 72.478,339.7C68.387,331.184 64.312,322.638 59.832,314.318C59.487,313.676 59.138,313.038 58.782,312.401C58.312,311.558 57.015,312.314 57.487,313.159C61.757,320.8 65.523,328.739 69.332,336.616C75.035,348.411 80.61,360.267 86.15,372.138C92.088,384.865 97.975,397.614 103.835,410.376C108.601,420.756 113.347,431.144 118.077,441.54C119.593,444.873 121.108,448.208 122.62,451.543C123.32,453.086 123.913,454.766 124.749,456.242C124.785,456.307 124.811,456.38 124.842,456.449C125.239,457.327 126.532,456.565 126.137,455.692Z" style="fill:rgb(101,202,244);fill-rule:nonzero;"/>
        <path d="M84.12,365.983C75.361,365.518 66.6,365.053 57.841,364.589C56.59,364.523 55.34,364.456 54.089,364.39C53.607,364.365 53.608,365.115 54.089,365.14C62.849,365.605 71.609,366.069 80.368,366.534C81.619,366.6 82.87,366.666 84.12,366.733C84.603,366.758 84.601,366.008 84.12,365.983Z" style="fill:rgb(101,202,244);fill-rule:nonzero;"/>
        <path d="M114.443,431.558C104.588,430.495 94.732,429.432 84.876,428.369C83.474,428.218 82.072,428.067 80.671,427.915C80.192,427.864 80.195,428.615 80.671,428.665C90.527,429.728 100.383,430.791 110.238,431.854C111.64,432.005 113.042,432.157 114.443,432.308C114.923,432.359 114.919,431.609 114.443,431.558Z" style="fill:rgb(101,202,244);fill-rule:nonzero;"/>
        <path d="M116.381,360.045C111.217,371.158 106.053,382.269 100.89,393.381C100.172,394.927 99.453,396.472 98.735,398.018C98.532,398.454 99.179,398.834 99.382,398.397C104.546,387.285 109.71,376.172 114.874,365.061C115.592,363.515 116.31,361.969 117.028,360.423C117.23,359.989 116.584,359.608 116.381,360.045Z" style="fill:rgb(101,202,244);fill-rule:nonzero;"/>
        <path d="M73.927,316.921C75.395,318.99 77.952,319.775 79.638,318.675C81.323,317.576 81.499,315.006 80.031,312.938C78.562,310.871 76.005,310.084 74.32,311.185C72.634,312.285 72.458,314.853 73.927,316.921Z" style="fill:rgb(101,202,244);fill-rule:nonzero;"/>
        <path d="M72.849,328.104C72.849,329.198 73.774,330.083 74.914,330.083C76.054,330.083 76.979,329.198 76.979,328.104C76.979,327.011 76.054,326.124 74.914,326.124C73.774,326.124 72.849,327.011 72.849,328.104Z" style="fill:white;fill-rule:nonzero;"/>
        <path d="M57.879,379.16C57.879,381.284 59.675,383.005 61.891,383.005C64.107,383.005 65.903,381.284 65.903,379.16C65.903,377.035 64.107,375.313 61.891,375.313C59.675,375.313 57.879,377.035 57.879,379.16Z" style="fill:rgb(101,202,244);fill-rule:nonzero;"/>
        <path d="M201.955,456.469C198.341,452.951 186.533,441.849 192.3,432.6C199.579,420.928 212.648,427.665 209.8,413.838C206.954,400.011 204.813,392.782 218.671,386.959C232.529,381.137 227.204,375.591 228.379,367.649C229.902,357.352 241.109,349.536 253.577,353.809C263.195,357.106 261.362,376.275 254.796,381.853C248.23,387.431 262.191,392.276 256.488,405.608C250.785,418.939 236.467,414.294 237.495,424.683C237.748,427.239 242.032,439.23 239.242,446.179C237.843,449.662 234.864,453.273 229.072,456.266" style="fill:none;stroke:rgb(101,202,244);stroke-width:1px;"/>
        <path d="M207.647,456.456C211.599,447.333 215.585,438.226 219.586,429.125C226.688,412.968 233.82,396.821 241.202,380.789C243.973,374.773 246.698,368.701 249.826,362.857C250.053,362.432 249.406,362.052 249.178,362.479C246.485,367.509 244.114,372.722 241.716,377.898C238.149,385.594 234.663,393.328 231.199,401.072C224.477,416.1 217.851,431.171 211.269,446.262C209.843,449.533 208.418,452.803 207,456.077C206.81,456.515 207.455,456.898 207.647,456.456Z" style="fill:rgb(101,202,244);fill-rule:nonzero;"/>
        <path d="M233.229,398.04C238.709,397.737 244.189,397.434 249.669,397.131C250.458,397.087 251.247,397.043 252.036,397C252.515,396.973 252.519,396.223 252.036,396.25C246.556,396.553 241.076,396.856 235.596,397.16C234.807,397.203 234.018,397.247 233.229,397.29C232.749,397.317 232.746,398.067 233.229,398.04Z" style="fill:rgb(101,202,244);fill-rule:nonzero;"/>
        <path d="M214.24,440.874C220.338,440.189 226.436,439.502 232.533,438.817C233.411,438.718 234.289,438.62 235.167,438.521C235.641,438.467 235.646,437.716 235.167,437.771C229.069,438.456 222.971,439.142 216.874,439.829C215.996,439.927 215.118,440.026 214.24,440.124C213.766,440.177 213.761,440.928 214.24,440.874Z" style="fill:rgb(101,202,244);fill-rule:nonzero;"/>
        <path d="M212.501,393.855C215.723,401.088 218.945,408.322 222.168,415.554C222.629,416.589 223.09,417.624 223.551,418.659C223.747,419.099 224.394,418.718 224.198,418.281C220.976,411.047 217.754,403.814 214.531,396.581C214.07,395.546 213.61,394.511 213.149,393.476C212.952,393.037 212.306,393.417 212.501,393.855Z" style="fill:rgb(101,202,244);fill-rule:nonzero;"/>
        <path d="M239.613,365.373C238.693,366.724 237.092,367.238 236.036,366.519C234.981,365.8 234.871,364.122 235.79,362.772C236.71,361.42 238.311,360.908 239.367,361.626C240.422,362.344 240.532,364.022 239.613,365.373Z" style="fill:rgb(101,202,244);fill-rule:nonzero;"/>
        <path d="M240.288,372.678C240.288,373.392 239.709,373.971 238.994,373.971C238.28,373.971 237.701,373.392 237.701,372.678C237.701,371.964 238.28,371.385 238.994,371.385C239.709,371.385 240.288,371.964 240.288,372.678Z" style="fill:rgb(101,202,244);fill-rule:nonzero;"/>
        <path d="M249.662,406.028C249.662,407.415 248.537,408.539 247.15,408.539C245.762,408.539 244.637,407.415 244.637,406.028C244.637,404.64 245.762,403.515 247.15,403.515C248.537,403.515 249.662,404.64 249.662,406.028Z" style="fill:rgb(101,202,244);fill-rule:nonzero;"/>
        <path d="M204.266,284.406C198.494,283.112 192.765,286.741 191.47,292.513C190.175,298.285 193.806,304.013 199.577,305.308C205.35,306.603 211.078,302.973 212.373,297.202C213.667,291.429 210.038,285.701 204.266,284.406ZM212.856,272.942C214.81,273.96 216.595,275.226 218.176,276.69L223.861,274.665L229.205,283.1L224.947,287.376C225.595,289.431 225.979,291.585 226.064,293.789L231.513,296.378L229.327,306.121L223.295,306.133C222.277,308.09 221.01,309.874 219.546,311.455L221.569,317.14L213.137,322.484L208.86,318.226C206.805,318.874 204.651,319.256 202.446,319.341L199.859,324.791L190.115,322.606L190.103,316.574C188.146,315.555 186.363,314.289 184.782,312.825L179.095,314.849L173.752,306.414L178.011,302.138C177.363,300.083 176.981,297.929 176.894,295.725L171.445,293.137L173.631,283.394L179.663,283.381C180.68,281.425 181.948,279.641 183.412,278.06L181.388,272.374L189.821,267.031L194.098,271.289C196.153,270.641 198.307,270.258 200.512,270.173L203.099,264.724L212.841,266.91L212.856,272.942Z" style="fill:rgb(101,202,244);"/>
        <path d="M298.59,329.623C293.912,328.575 289.268,331.516 288.218,336.195C287.169,340.874 290.112,345.517 294.79,346.567C299.469,347.617 304.113,344.674 305.162,339.996C306.212,335.317 303.269,330.673 298.59,329.623ZM305.553,320.331C307.138,321.157 308.585,322.183 309.866,323.37L314.474,321.729L318.806,328.566L315.355,332.032C315.88,333.698 316.191,335.444 316.26,337.23L320.677,339.329L318.905,347.225L314.015,347.236C313.19,348.822 312.164,350.268 310.976,351.549L312.617,356.159L305.781,360.49L302.314,357.039C300.649,357.564 298.903,357.873 297.116,357.943L295.018,362.36L287.12,360.589L287.11,355.699C285.524,354.873 284.079,353.847 282.797,352.66L278.187,354.3L273.856,347.464L277.308,343.997C276.783,342.331 276.473,340.585 276.403,338.799L271.987,336.702L273.757,328.804L278.647,328.793C279.472,327.207 280.5,325.761 281.686,324.48L280.046,319.871L286.881,315.539L290.349,318.992C292.014,318.466 293.76,318.156 295.547,318.086L297.645,313.669L305.542,315.441L305.553,320.331Z" style="fill:none;stroke:rgb(101,202,244);stroke-width:1px;"/>
        <path d="M64.001,185.071C58.23,183.777 52.5,187.406 51.205,193.178C49.91,198.95 53.541,204.679 59.312,205.974C65.085,207.268 70.813,203.639 72.108,197.867C73.403,192.094 69.773,186.366 64.001,185.071ZM72.591,173.607C74.546,174.626 76.33,175.892 77.911,177.355L83.596,175.331L88.94,183.766L84.682,188.042C85.33,190.097 85.714,192.251 85.799,194.455L91.249,197.043L89.062,206.786L83.03,206.799C82.012,208.755 80.745,210.539 79.281,212.12L81.305,217.806L72.872,223.149L68.594,218.892C66.54,219.539 64.386,219.921 62.181,220.007L59.594,225.456L49.85,223.272L49.838,217.239C47.881,216.221 46.098,214.955 44.517,213.49L38.83,215.514L33.487,207.08L37.746,202.803C37.098,200.749 36.716,198.595 36.629,196.391L31.181,193.803L33.366,184.06L39.398,184.047C40.416,182.091 41.683,180.306 43.147,178.726L41.123,173.039L49.556,167.696L53.834,171.955C55.888,171.307 58.042,170.924 60.247,170.838L62.834,165.389L72.576,167.575L72.591,173.607Z" style="fill:none;stroke:rgb(101,202,244);stroke-width:1px;"/>
        <path d="M245.321,187.808C241.728,187.002 238.16,189.262 237.355,192.855C236.548,196.449 238.809,200.016 242.402,200.822C245.996,201.628 249.562,199.368 250.368,195.774C251.174,192.181 248.915,188.614 245.321,187.808ZM250.669,180.671C251.885,181.305 252.997,182.093 253.981,183.004L257.521,181.744L260.846,186.996L258.196,189.658C258.6,190.937 258.838,192.278 258.892,193.65L262.285,195.262L260.923,201.327L257.169,201.335C256.535,202.553 255.746,203.664 254.834,204.648L256.094,208.188L250.844,211.515L248.181,208.864C246.902,209.268 245.561,209.505 244.188,209.559L242.577,212.952L236.511,211.591L236.503,207.835C235.285,207.202 234.175,206.413 233.191,205.501L229.65,206.761L226.323,201.51L228.975,198.848C228.571,197.569 228.334,196.227 228.279,194.855L224.887,193.244L226.248,187.178L230.004,187.17C230.637,185.953 231.426,184.841 232.338,183.857L231.077,180.317L236.328,176.991L238.991,179.642C240.27,179.238 241.611,179 242.984,178.947L244.594,175.555L250.66,176.915L250.669,180.671Z" style="fill:none;stroke:rgb(101,202,244);stroke-width:1px;"/>
        <path d="M403.171,229.258C397.77,228.046 392.408,231.443 391.196,236.845C389.985,242.247 393.382,247.608 398.783,248.819C404.185,250.031 409.547,246.634 410.757,241.232C411.969,235.83 408.573,230.47 403.171,229.258ZM411.21,218.529C413.039,219.483 414.71,220.667 416.189,222.037L421.509,220.143L426.51,228.037L422.526,232.038C423.132,233.961 423.491,235.977 423.571,238.04L428.671,240.462L426.625,249.579L420.979,249.592C420.027,251.422 418.841,253.092 417.471,254.572L419.365,259.893L411.473,264.893L407.47,260.909C405.547,261.516 403.532,261.873 401.468,261.953L399.047,267.052L389.928,265.007L389.917,259.362C388.086,258.41 386.417,257.224 384.937,255.854L379.616,257.748L374.615,249.854L378.6,245.852C377.994,243.93 377.636,241.914 377.555,239.851L372.457,237.429L374.502,228.311L380.146,228.3C381.099,226.469 382.285,224.799 383.655,223.319L381.761,217.998L389.653,212.998L393.656,216.983C395.579,216.376 397.594,216.018 399.658,215.938L402.08,210.839L411.196,212.884L411.21,218.529Z" style="fill:none;stroke:rgb(101,202,244);stroke-width:1px;"/>
        <path d="M291.907,158.36C290.824,158.757 290.201,160.023 290.612,161.148L290.886,161.897C291.313,163.063 292.591,163.588 293.674,163.192C294.84,162.765 295.394,161.571 294.968,160.404L294.694,159.655C294.282,158.53 293.073,157.934 291.907,158.36ZM294.997,139.571C293.23,134.739 287.842,132.272 283.011,134.039C279.804,135.212 277.612,137.997 277.057,141.127C276.839,142.34 277.614,143.426 278.785,143.659C279.998,143.876 281.126,143.086 281.343,141.873C281.632,140.209 282.796,138.745 284.504,138.12C287.127,137.16 289.998,138.424 290.957,141.048C291.902,143.63 290.539,146.489 287.916,147.449C286.833,147.845 286.225,149.153 286.621,150.236C286.637,150.278 286.637,150.278 286.693,150.304C286.709,150.346 286.667,150.361 286.682,150.403L288.266,154.734C288.693,155.9 289.971,156.424 291.054,156.028C292.22,155.602 292.774,154.407 292.348,153.241L291.358,150.534C294.896,148.201 296.505,143.694 294.997,139.571Z" style="fill:none;stroke:rgb(101,202,244);stroke-width:1px;"/>
        <path d="M76.187,125.932C74.795,126.441 73.994,128.07 74.523,129.516L74.875,130.479C75.424,131.979 77.066,132.653 78.459,132.144C79.958,131.595 80.671,130.059 80.123,128.56L79.77,127.596C79.241,126.15 77.686,125.384 76.187,125.932ZM80.16,101.773C77.888,95.561 70.96,92.388 64.749,94.66C60.626,96.168 57.807,99.749 57.094,103.774C56.814,105.334 57.81,106.73 59.316,107.029C60.876,107.309 62.325,106.293 62.605,104.733C62.976,102.594 64.473,100.711 66.668,99.908C70.042,98.674 73.732,100.299 74.966,103.673C76.181,106.992 74.429,110.669 71.055,111.903C69.663,112.412 68.882,114.094 69.391,115.486C69.411,115.54 69.411,115.54 69.484,115.574C69.504,115.627 69.45,115.647 69.47,115.7L71.506,121.269C72.055,122.769 73.698,123.443 75.09,122.933C76.589,122.385 77.303,120.849 76.754,119.35L75.481,115.869C80.03,112.87 82.099,107.074 80.16,101.773Z" style="fill:none;stroke:rgb(101,202,244);stroke-width:1px;"/>
        <path d="M441.35,194.384C440.438,193.809 439.145,194.072 438.547,195.019L438.149,195.65C437.529,196.632 437.871,197.878 438.783,198.453C439.766,199.073 440.967,198.801 441.587,197.819L441.985,197.188C442.582,196.241 442.333,195.004 441.35,194.384ZM457.028,185.935C459.595,181.866 458.343,176.466 454.274,173.899C451.573,172.196 448.258,172.164 445.623,173.542C444.601,174.074 444.24,175.268 444.737,176.268C445.269,177.291 446.498,177.674 447.521,177.142C448.917,176.405 450.667,176.43 452.105,177.337C454.315,178.731 455.02,181.579 453.625,183.788C452.253,185.963 449.358,186.588 447.148,185.194C446.236,184.619 444.92,184.917 444.345,185.829C444.323,185.864 444.323,185.864 444.336,185.921C444.314,185.956 444.279,185.934 444.257,185.969L441.955,189.617C441.336,190.599 441.678,191.845 442.59,192.42C443.572,193.04 444.773,192.768 445.393,191.786L446.831,189.506C450.58,190.792 454.837,189.408 457.028,185.935Z" style="fill:none;stroke:rgb(101,202,244);stroke-width:1px;"/>
        <path d="M415.564,123.248C413.826,122.789 411.9,123.852 411.423,125.656L411.105,126.859C410.609,128.73 411.775,130.54 413.512,131C415.383,131.495 417.158,130.463 417.653,128.592L417.971,127.389C418.449,125.585 417.435,123.743 415.564,123.248ZM436.276,101.987C438.327,94.236 433.641,86.275 425.89,84.224C420.745,82.862 415.458,84.466 411.956,87.973C410.596,89.329 410.618,91.408 411.907,92.75C413.264,94.11 415.41,94.106 416.77,92.75C418.623,90.881 421.417,90.047 424.157,90.772C428.367,91.886 430.908,96.062 429.795,100.272C428.698,104.415 424.406,106.855 420.196,105.741C418.459,105.281 416.515,106.411 416.056,108.149C416.038,108.215 416.038,108.215 416.087,108.3C416.069,108.367 416.002,108.349 415.985,108.416L414.146,115.365C413.651,117.236 414.816,119.046 416.554,119.506C418.425,120.001 420.199,118.969 420.695,117.098L421.844,112.755C428.447,112.929 434.526,108.603 436.276,101.987Z" style="fill:none;stroke:rgb(36,92,171);stroke-width:1px;"/>
        <path d="M259.693,62.826C256.872,59.334 252.679,56.858 248.104,56.778C245.457,56.732 242.668,57.082 240.305,58.344C238.242,59.444 236.419,61.011 234.953,62.826C232.426,65.954 230.97,70.033 231.408,74.03C231.773,77.368 233.423,80.428 235.602,82.933C237.727,85.377 240.825,87.393 241.356,90.845C241.507,91.83 241.144,93.192 241.896,93.98C242.791,94.919 244.243,94.592 245.388,94.583C246.751,94.572 248.112,94.564 249.475,94.557C250.451,94.552 252.012,94.823 252.75,93.98C253.501,93.192 253.137,91.83 253.29,90.845C253.689,88.245 255.716,86.138 257.583,84.444C259.724,82.5 261.422,80.265 262.379,77.505C264.149,72.396 263.067,67.003 259.693,62.826Z" style="fill:none;stroke:rgb(36,92,171);stroke-width:1px;stroke-linecap:round;"/>
        <path d="M246.383,97.562C246.383,97.562 246.043,88.452 245.625,83.988C245.514,82.796 245.421,81.573 244.839,79.746C243.879,76.726 242.341,76.287 241.408,76.974C240.231,77.84 240.988,79.663 242.698,80.411C243.73,80.861 245.637,80.657 246.623,80.075C248.354,79.052 249.116,76.627 248.873,74.806C248.751,73.89 246.98,72.857 246.348,74.558C245.907,75.749 246.886,80.096 249.18,80.223C250.391,80.29 251.587,79.813 252.509,79.039C253.285,78.39 254.609,76.815 254.104,75.715C253.86,75.186 253.166,74.984 252.604,75.141C252.043,75.298 251.6,75.727 251.238,76.184C249.809,77.984 249.26,80.259 249.146,82.509C248.874,87.879 248.805,92.101 248.634,97.475" style="fill:none;stroke:rgb(36,92,171);stroke-width:1px;"/>
        <path d="M252.38,98.478C252.22,98.281 252.227,97.958 252.396,97.772L252.454,97.708C252.62,97.526 252.631,97.21 252.477,97.011L252.383,96.89C252.223,96.682 252.244,96.35 252.426,96.172C252.605,95.998 252.629,95.674 252.476,95.465L252.229,95.124C252.138,95 251.997,94.928 251.847,94.928L242.673,94.928C242.523,94.928 242.381,95 242.291,95.124L242.044,95.465C241.892,95.674 241.914,95.998 242.094,96.172C242.277,96.35 242.296,96.682 242.136,96.89L242.043,97.011C241.889,97.21 241.9,97.526 242.066,97.708L242.123,97.772C242.292,97.958 242.3,98.281 242.14,98.478L242.067,98.568C241.903,98.771 241.915,99.102 242.093,99.285L242.131,99.325C242.327,99.527 242.574,99.638 242.83,99.638L243.964,99.638L245.118,101.781C245.26,102.046 245.545,102.213 245.856,102.217L248.965,102.25C249.28,102.254 249.57,102.089 249.716,101.824L250.922,99.638L251.69,99.638C251.946,99.638 252.193,99.527 252.388,99.325L252.426,99.285C252.604,99.102 252.617,98.771 252.453,98.568L252.38,98.478Z" style="fill:rgb(19,192,241);fill-rule:nonzero;"/>
        <path d="M243.233,96.387L251.626,96.387" style="fill:none;stroke:rgb(36,92,171);stroke-width:0.5px;stroke-linecap:round;stroke-linejoin:round;"/>
        <path d="M242.817,97.434L252.042,97.434" style="fill:none;stroke:rgb(36,92,171);stroke-width:0.5px;stroke-linecap:round;stroke-linejoin:round;"/>
        <path d="M243.586,98.482L251.272,98.482" style="fill:none;stroke:rgb(36,92,171);stroke-width:0.5px;stroke-linecap:round;stroke-linejoin:round;"/>
        <path d="M247.919,61.007C245.863,60.972 243.697,61.244 241.862,62.223C240.26,63.078 238.844,64.294 237.705,65.704C235.743,68.133 234.613,71.301 234.952,74.405" style="fill:none;stroke:rgb(19,192,241);stroke-width:1.2px;stroke-linecap:round;"/>
        <path d="M245.887,43.455L245.887,53.919" style="fill:none;stroke:rgb(36,92,171);stroke-width:1px;stroke-linecap:round;"/>
        <path d="M261.065,49.356L256.372,55.868" style="fill:none;stroke:rgb(36,92,171);stroke-width:1px;stroke-linecap:round;"/>
        <path d="M272.991,58.917L263.395,63.091" style="fill:none;stroke:rgb(36,92,171);stroke-width:1px;stroke-linecap:round;"/>
        <path d="M272.979,71.851L266.155,72.141" style="fill:none;stroke:rgb(36,92,171);stroke-width:1px;stroke-linecap:round;"/>
        <path d="M273.422,86.76L263.938,82.337" style="fill:none;stroke:rgb(36,92,171);stroke-width:1px;stroke-linecap:round;"/>
        <path d="M233.055,49.637L237.546,55.868" style="fill:none;stroke:rgb(36,92,171);stroke-width:1px;stroke-linecap:round;"/>
        <path d="M220.927,58.917L230.523,63.091" style="fill:none;stroke:rgb(36,92,171);stroke-width:1px;stroke-linecap:round;"/>
        <path d="M221.494,71.874L227.763,72.141" style="fill:none;stroke:rgb(36,92,171);stroke-width:1px;stroke-linecap:round;"/>
        <path d="M220.496,86.76L229.979,82.337" style="fill:none;stroke:rgb(36,92,171);stroke-width:1px;stroke-linecap:round;"/>
        <path d="M132.512,127.674C132.512,127.674 109.599,127.279 87.159,159.831C63.228,194.548 68.956,228.955 84.333,234.546C94.005,238.063 103.048,239.714 111.175,240.212L132.512,127.674Z" style="fill:rgb(65,104,177);fill-rule:nonzero;"/>
        <path d="M272.749,261.141C272.749,261.141 265.957,263.973 264.868,262.599C263.214,260.511 272.637,255.263 274.343,253.854C276.049,252.445 282.237,248.844 284.8,247.437C287.364,246.031 291.467,242.544 291.467,242.544L303.09,250.939C303.09,250.939 293.413,265.975 287.238,273.005C281.062,280.036 274.34,284.768 272.607,283.433C270.874,282.098 273.534,280.82 273.534,280.82C273.534,280.82 269.775,283.148 268.75,282.305C267.725,281.461 270.075,278.941 270.075,278.941C270.075,278.941 265.9,282.07 264.516,280.853C263.132,279.636 268.166,275.416 268.166,275.416C268.166,275.416 263.608,278.309 262.708,276.787C261.807,275.264 268.194,269.501 272.641,265.425C277.089,261.349 274.766,260.386 272.749,261.141Z" style="fill:rgb(251,192,160);fill-rule:nonzero;"/>
        <path d="M267.721,262.765C267.721,262.765 271.857,261.547 273.557,260.936C275.258,260.326 276.733,259.727 279.838,259.831C282.942,259.938 286.589,257.505 286.589,257.505" style="fill:none;stroke:rgb(244,131,121);stroke-width:0.75px;stroke-linecap:round;"/>
        <path d="M267.721,275.684L275.337,269.017" style="fill:none;stroke:rgb(244,131,121);stroke-width:0.75px;stroke-linecap:round;"/>
        <path d="M270.075,278.941L277.587,272.351" style="fill:none;stroke:rgb(244,131,121);stroke-width:0.75px;stroke-linecap:round;"/>
        <path d="M273.059,281.098L280.226,274.994" style="fill:none;stroke:rgb(244,131,121);stroke-width:0.75px;stroke-linecap:round;"/>
        <path d="M334.255,145.855C323.234,169.874 302.275,212.909 281.633,240.831L303.024,259.831C303.024,259.831 355.392,229.783 373.789,188.953C362.974,177.121 343.053,155.345 334.255,145.855Z" style="fill:white;fill-rule:nonzero;"/>
        <path d="M299.437,230.304C299.437,231.714 298.295,232.857 296.884,232.857C295.474,232.857 294.331,231.714 294.331,230.304C294.331,228.893 295.474,227.75 296.884,227.75C298.295,227.75 299.437,228.893 299.437,230.304Z" style="fill:rgb(239,70,83);fill-rule:nonzero;"/>
        <path d="M309.753,240.831C309.753,242.241 308.61,243.384 307.2,243.384C305.79,243.384 304.646,242.241 304.646,240.831C304.646,239.421 305.79,238.278 307.2,238.278C308.61,238.278 309.753,239.421 309.753,240.831Z" style="fill:rgb(239,70,83);fill-rule:nonzero;"/>
        <path d="M311.561,223.456C311.561,224.866 310.419,226.009 309.008,226.009C307.598,226.009 306.455,224.866 306.455,223.456C306.455,222.046 307.598,220.903 309.008,220.903C310.419,220.903 311.561,222.046 311.561,223.456Z" style="fill:rgb(239,70,83);fill-rule:nonzero;"/>
        <path d="M319.995,202.843C319.995,204.253 318.852,205.396 317.442,205.396C316.032,205.396 314.888,204.253 314.888,202.843C314.888,201.433 316.032,200.29 317.442,200.29C318.852,200.29 319.995,201.433 319.995,202.843Z" style="fill:rgb(239,70,83);fill-rule:nonzero;"/>
        <path d="M314.1,188.921C315.51,188.921 316.654,187.778 316.654,186.368C316.654,185.496 316.215,184.728 315.549,184.268C314.779,185.756 314.001,187.25 313.21,188.752C313.488,188.856 313.786,188.921 314.1,188.921Z" style="fill:rgb(239,70,83);fill-rule:nonzero;"/>
        <path d="M304.978,209.985C304.978,208.754 304.106,207.726 302.946,207.486C302.144,208.889 301.338,210.286 300.525,211.676C300.993,212.202 301.667,212.539 302.425,212.539C303.836,212.539 304.978,211.395 304.978,209.985Z" style="fill:rgb(239,70,83);fill-rule:nonzero;"/>
        <path d="M320.497,244.758C319.087,244.758 317.944,245.901 317.944,247.311C317.944,248.14 318.344,248.869 318.956,249.335C320.22,248.426 321.535,247.464 322.89,246.449C322.536,245.465 321.603,244.758 320.497,244.758Z" style="fill:rgb(239,70,83);fill-rule:nonzero;"/>
        <path d="M309.456,230.695C309.187,230.236 308.607,230.109 308.152,230.353C306.08,231.462 303.967,232.494 301.818,233.445C301.348,233.654 301.238,234.34 301.476,234.749C301.76,235.234 302.308,235.3 302.78,235.091C304.929,234.14 307.042,233.108 309.114,231.998C309.567,231.755 309.709,231.127 309.456,230.695Z" style="fill:rgb(65,104,177);fill-rule:nonzero;"/>
        <path d="M316.708,208.733C314.739,209.922 312.79,211.157 310.784,212.283C310.349,212.527 310.167,213.159 310.442,213.587C310.726,214.027 311.281,214.19 311.746,213.929C313.752,212.802 315.701,211.568 317.67,210.378C318.096,210.121 318.293,209.512 318.011,209.075C317.735,208.646 317.164,208.457 316.708,208.733Z" style="fill:rgb(65,104,177);fill-rule:nonzero;"/>
        <path d="M293.829,234.834C291.86,236.023 289.911,237.258 287.906,238.384C287.47,238.629 287.288,239.261 287.564,239.688C287.847,240.128 288.402,240.291 288.868,240.03C290.873,238.903 292.822,237.669 294.791,236.48C295.217,236.222 295.415,235.613 295.132,235.176C294.856,234.747 294.286,234.559 293.829,234.834Z" style="fill:rgb(65,104,177);fill-rule:nonzero;"/>
        <path d="M309.266,202.382C309.753,202.639 310.266,202.478 310.57,202.04C311.554,200.618 312.54,199.196 313.524,197.774C313.808,197.364 313.613,196.699 313.182,196.471C312.696,196.214 312.182,196.374 311.879,196.812C310.894,198.234 309.909,199.656 308.924,201.078C308.64,201.489 308.836,202.154 309.266,202.382Z" style="fill:rgb(65,104,177);fill-rule:nonzero;"/>
        <path d="M300.845,222.199C301.116,222.637 301.697,222.806 302.149,222.541C302.586,222.286 302.762,221.677 302.491,221.237C301.157,219.08 299.937,216.855 298.817,214.579C298.434,215.223 298.05,215.86 297.667,216.499C298.654,218.439 299.701,220.348 300.845,222.199Z" style="fill:rgb(65,104,177);fill-rule:nonzero;"/>
        <path d="M321.663,183.968C322.208,185.067 323.851,184.102 323.308,183.006C322.139,180.651 320.971,178.296 319.803,175.94C319.45,176.642 319.089,177.351 318.731,178.059C319.708,180.029 320.685,181.998 321.663,183.968Z" style="fill:rgb(65,104,177);fill-rule:nonzero;"/>
        <path d="M311.87,254.247C312.363,252.792 312.829,251.329 313.234,249.848C313.559,248.663 311.721,248.158 311.397,249.341C310.783,251.58 310.066,253.791 309.255,255.967C310.063,255.444 310.936,254.871 311.87,254.247Z" style="fill:rgb(65,104,177);fill-rule:nonzero;"/>
        <path d="M313.964,252.835L287.27,232.857C285.393,235.623 283.512,238.289 281.633,240.831L303.024,259.831C303.024,259.831 307.358,257.344 313.964,252.835Z" style="fill:rgb(239,70,83);fill-rule:nonzero;"/>
        <path d="M283.363,242.367L284.076,243L290.503,235.277L289.739,234.705L283.363,242.367Z" style="fill:white;fill-rule:nonzero;"/>
        <path d="M309.193,249.265L299.682,256.863L300.405,257.505L309.982,249.855L309.193,249.265Z" style="fill:white;fill-rule:nonzero;"/>
        <path d="M294.9,238.568L294.135,237.996L287.257,245.827L287.97,246.459L294.9,238.568Z" style="fill:white;fill-rule:nonzero;"/>
        <path d="M304.296,245.6L303.518,245.018L294.999,252.703L295.714,253.339L304.296,245.6Z" style="fill:white;fill-rule:nonzero;"/>
        <path d="M299.437,241.964L298.669,241.389L291.09,249.231L291.803,249.865L299.437,241.964Z" style="fill:white;fill-rule:nonzero;"/>
        <path d="M334.255,145.855C323.234,169.874 302.275,212.909 281.633,240.831L303.024,259.831C303.024,259.831 355.392,229.783 373.789,188.953C362.974,177.121 343.053,155.345 334.255,145.855Z" style="fill:none;stroke:rgb(24,22,71);stroke-width:1px;stroke-linecap:round;"/>
        <path d="M317.259,403.091L315.186,430.842L336.672,431.343L338.467,404.435L317.259,403.091Z" style="fill:rgb(251,192,160);fill-rule:nonzero;"/>
        <path d="M281.911,456.331L341.821,456.331L342.716,421.64L312.643,422.608L311.556,436.308L281.911,456.331Z" style="fill:white;fill-rule:nonzero;"/>
        <path d="M281.911,456.331L341.821,456.331L342.716,421.64L312.643,422.608L311.556,436.308L281.911,456.331Z" style="fill:none;stroke:rgb(0,1,24);stroke-width:1px;"/>
        <path d="M299.568,440.814L303.082,449.01" style="fill:none;fill-rule:nonzero;"/>
        <path d="M299.245,441.003C300.271,443.398 301.297,445.793 302.324,448.188C302.468,448.525 302.613,448.862 302.757,449.2C302.947,449.641 303.593,449.26 303.405,448.821C302.379,446.426 301.352,444.031 300.326,441.636C300.181,441.299 300.037,440.962 299.892,440.624C299.703,440.183 299.056,440.564 299.245,441.003Z" style="fill:rgb(0,1,24);fill-rule:nonzero;"/>
        <path d="M305.079,437.925L308.591,446.121" style="fill:none;fill-rule:nonzero;"/>
        <path d="M304.755,438.114C305.781,440.509 306.808,442.904 307.835,445.298C307.979,445.635 308.124,445.973 308.268,446.31C308.458,446.752 309.104,446.371 308.916,445.931C307.889,443.537 306.863,441.142 305.836,438.747C305.691,438.41 305.547,438.073 305.402,437.736C305.213,437.293 304.566,437.675 304.755,438.114Z" style="fill:rgb(0,1,24);fill-rule:nonzero;"/>
        <path d="M309.415,436.45C307.529,435.646 305.686,434.716 303.899,433.714C302.474,432.916 301.072,432.059 299.772,431.067C298.712,430.257 297.542,429.292 296.958,428.059C296.469,427.027 296.825,426.073 297.653,425.33C298.402,424.658 299.335,424.695 300.197,425.129C301.352,425.713 302.288,426.706 303.117,427.678C304.106,428.838 304.975,430.1 305.791,431.387C306.926,433.182 307.984,435.045 308.901,436.962C309.109,437.398 309.756,437.018 309.548,436.584C308.703,434.816 307.734,433.097 306.703,431.431C305.846,430.048 304.927,428.698 303.892,427.441C303.009,426.368 302.008,425.289 300.788,424.596C299.863,424.073 298.763,423.825 297.777,424.333C296.788,424.843 295.91,426.034 295.96,427.176C296.015,428.429 296.93,429.514 297.784,430.348C298.984,431.523 300.397,432.485 301.821,433.364C304.119,434.783 306.55,436.039 309.036,437.097C309.475,437.285 309.857,436.638 309.415,436.45Z" style="fill:rgb(0,1,24);fill-rule:nonzero;"/>
        <path d="M305.687,422.083C306.734,426.488 307.782,430.892 308.829,435.296C308.976,435.915 309.123,436.535 309.27,437.154C309.381,437.623 310.105,437.424 309.994,436.955C308.946,432.55 307.899,428.146 306.852,423.742C306.705,423.122 306.557,422.503 306.411,421.884C306.298,421.414 305.576,421.614 305.687,422.083Z" style="fill:rgb(0,1,24);fill-rule:nonzero;"/>
        <path d="M342.214,441.139C335.599,441.323 328.971,446.96 328.878,453.638C328.866,454.488 328.94,455.318 329.091,456.122L342.23,456.342L342.214,441.139Z" style="fill:rgb(239,70,83);fill-rule:nonzero;"/>
        <path d="M342.214,441.139C335.599,441.323 328.971,446.96 328.878,453.638C328.866,454.488 328.94,455.318 329.091,456.122L342.23,456.342L342.214,441.139Z" style="fill:none;stroke:rgb(0,1,24);stroke-width:1px;"/>
        <path d="M316.723,237.704L308.687,409.925L345.873,410.501L359.917,263.608L360.285,237.313L316.723,237.704Z" style="fill:rgb(36,92,171);fill-rule:nonzero;"/>
        <path d="M377.974,404.655L379.551,432.439L400.917,430.123L399.175,403.211L377.974,404.655Z" style="fill:rgb(251,192,160);fill-rule:nonzero;"/>
        <path d="M344.122,456.265L407.355,456.555L403.87,421.394L375.998,422.795L374.911,436.497L344.122,456.265Z" style="fill:white;fill-rule:nonzero;"/>
        <path d="M344.122,456.265L407.355,456.555L403.87,421.394L375.998,422.795L374.911,436.497L344.122,456.265Z" style="fill:none;stroke:rgb(0,1,24);stroke-width:1px;"/>
        <path d="M362.922,441.002L366.435,449.198" style="fill:none;fill-rule:nonzero;"/>
        <path d="M362.598,441.192C363.625,443.586 364.652,445.981 365.678,448.376C365.823,448.713 365.967,449.05 366.112,449.387C366.301,449.83 366.948,449.448 366.759,449.009C365.733,446.614 364.707,444.219 363.679,441.825C363.535,441.488 363.39,441.15 363.246,440.813C363.056,440.371 362.41,440.752 362.598,441.192Z" style="fill:rgb(0,1,24);fill-rule:nonzero;"/>
        <path d="M368.432,438.113L371.946,446.309" style="fill:none;fill-rule:nonzero;"/>
        <path d="M368.109,438.302C369.135,440.697 370.162,443.092 371.189,445.487C371.334,445.824 371.478,446.161 371.623,446.497C371.812,446.94 372.459,446.559 372.27,446.12C371.243,443.725 370.216,441.33 369.19,438.935C369.046,438.598 368.901,438.261 368.756,437.924C368.567,437.482 367.921,437.863 368.109,438.302Z" style="fill:rgb(0,1,24);fill-rule:nonzero;"/>
        <path d="M372.768,436.638C370.882,435.834 369.041,434.905 367.254,433.903C365.829,433.105 364.426,432.247 363.127,431.255C362.065,430.446 360.895,429.481 360.312,428.247C359.823,427.215 360.179,426.261 361.007,425.517C361.755,424.846 362.689,424.883 363.55,425.318C364.706,425.902 365.642,426.894 366.471,427.867C367.461,429.027 368.33,430.289 369.145,431.576C370.281,433.371 371.339,435.234 372.255,437.151C372.464,437.586 373.111,437.206 372.903,436.773C372.057,435.004 371.089,433.286 370.057,431.62C369.201,430.237 368.282,428.886 367.247,427.628C366.363,426.556 365.363,425.477 364.141,424.785C363.217,424.261 362.118,424.013 361.131,424.522C360.142,425.032 359.263,426.222 359.314,427.365C359.369,428.618 360.285,429.703 361.137,430.537C362.339,431.71 363.751,432.673 365.175,433.552C367.473,434.971 369.904,436.227 372.39,437.286C372.829,437.473 373.212,436.827 372.768,436.638Z" style="fill:rgb(0,1,24);fill-rule:nonzero;"/>
        <path d="M369.042,422.272C370.089,426.676 371.135,431.081 372.183,435.485C372.33,436.104 372.477,436.723 372.625,437.342C372.736,437.811 373.46,437.613 373.347,437.142C372.3,432.738 371.254,428.333 370.207,423.929C370.059,423.31 369.912,422.692 369.764,422.073C369.653,421.603 368.929,421.801 369.042,422.272Z" style="fill:rgb(0,1,24);fill-rule:nonzero;"/>
        <path d="M405.842,441.297C399.228,441.481 392.325,447.149 392.232,453.827C392.219,454.676 392.295,455.505 392.446,456.309L407.051,456.551L405.842,441.297Z" style="fill:rgb(239,70,83);fill-rule:nonzero;"/>
        <path d="M405.842,441.297C399.228,441.481 392.325,447.149 392.232,453.827C392.219,454.676 392.295,455.505 392.446,456.309L407.051,456.551L405.842,441.297Z" style="fill:none;stroke:rgb(0,1,24);stroke-width:1px;"/>
        <path d="M335.116,258.36L347.424,258.533L368.292,409.709L405.007,410.225L390.681,237.226L332.443,235.819L335.116,258.36Z" style="fill:rgb(36,92,171);fill-rule:nonzero;"/>
        <path d="M335.116,258.36L347.424,258.533L368.292,409.709L405.007,410.225" style="fill:none;stroke:rgb(24,22,71);stroke-width:1px;stroke-linecap:round;"/>
        <path d="M372.448,255.434C372.448,255.434 375.84,265.969 386.861,266.805" style="fill:none;stroke:rgb(24,22,71);stroke-width:1px;stroke-linecap:round;"/>
        <path d="M356.975,131.346C356.975,131.346 342.397,125.709 328.421,150.201C319.38,166.043 311.007,246.209 311.007,246.209L395.26,245.744L387.424,163.525L356.975,131.346Z" style="fill:white;fill-rule:nonzero;"/>
        <path d="M311.007,246.209L395.26,245.744L394.314,235.819L312.174,235.819C311.425,242.205 311.007,246.209 311.007,246.209Z" style="fill:rgb(239,70,83);fill-rule:nonzero;"/>
        <path d="M332.268,235.819L331.314,235.819L330.82,246.1L331.775,246.094L332.268,235.819Z" style="fill:white;fill-rule:nonzero;"/>
        <path d="M326.246,235.819L325.29,235.819L324.538,246.134L325.494,246.129L326.246,235.819Z" style="fill:white;fill-rule:nonzero;"/>
        <path d="M342.447,235.819L341.494,235.819L341.1,246.043L342.054,246.038L342.447,235.819Z" style="fill:white;fill-rule:nonzero;"/>
        <path d="M337.767,235.819L336.812,235.819L336.203,246.07L337.157,246.064L337.767,235.819Z" style="fill:white;fill-rule:nonzero;"/>
        <path d="M314.88,235.819L313.547,246.195L314.507,246.189L315.84,235.819L314.88,235.819Z" style="fill:white;fill-rule:nonzero;"/>
        <path d="M321.148,235.819L320.192,235.819L319.24,246.163L320.197,246.158L321.148,235.819Z" style="fill:white;fill-rule:nonzero;"/>
        <path d="M347.55,235.819L346.596,235.819L346.405,246.014L347.359,246.008L347.55,235.819Z" style="fill:white;fill-rule:nonzero;"/>
        <path d="M377.841,235.819L376.888,235.819L377.322,245.843L378.275,245.837L377.841,235.819Z" style="fill:white;fill-rule:nonzero;"/>
        <path d="M384.056,235.819L383.102,235.819L383.324,245.809L384.277,245.804L384.056,235.819Z" style="fill:white;fill-rule:nonzero;"/>
        <path d="M370.759,235.819L369.802,235.819L370.63,245.88L371.587,245.874L370.759,235.819Z" style="fill:white;fill-rule:nonzero;"/>
        <path d="M353.345,235.819L352.393,235.819L352.393,245.98L353.345,245.975L353.345,235.819Z" style="fill:white;fill-rule:nonzero;"/>
        <path d="M388.88,235.819L387.924,235.819L388.596,245.781L389.551,245.775L388.88,235.819Z" style="fill:white;fill-rule:nonzero;"/>
        <path d="M364.628,235.819L363.672,235.819L364.051,245.916L365.005,245.911L364.628,235.819Z" style="fill:white;fill-rule:nonzero;"/>
        <path d="M358.664,235.819L357.71,235.819L358.145,245.949L359.098,245.943L358.664,235.819Z" style="fill:white;fill-rule:nonzero;"/>
        <path d="M356.975,131.346C356.975,131.346 342.397,125.709 328.421,150.201C319.38,166.043 311.007,246.209 311.007,246.209L395.26,245.744L387.424,163.525L356.975,131.346Z" style="fill:none;stroke:rgb(24,22,71);stroke-width:1px;stroke-linecap:round;"/>
        <path d="M325.367,116.729C325.846,109.352 330.666,109.646 330.666,109.646C330.666,109.646 329.281,107.188 331.745,103.412C334.512,99.172 339.368,98.753 341.619,98.808C343.342,94.406 345.416,91.3 347.522,91.221C354.193,90.971 361.579,105.05 367.143,104.949C372.707,104.849 391.727,123.013 376.571,127.714C360.048,132.84 338.125,128.282 338.125,128.282C332.692,127.389 324.921,123.586 325.367,116.729Z" style="fill:rgb(36,92,171);fill-rule:nonzero;"/>
        <path d="M365.71,131.631C365.71,134.615 361.373,137.034 356.022,137.034C350.672,137.034 346.336,134.615 346.336,131.631C346.336,128.647 350.672,126.229 356.022,126.229C361.373,126.229 365.71,128.647 365.71,131.631Z" style="fill:rgb(239,70,83);fill-rule:nonzero;"/>
        <path d="M365.71,131.631C365.71,134.615 361.373,137.034 356.022,137.034C350.672,137.034 346.336,134.615 346.336,131.631C346.336,128.647 350.672,126.229 356.022,126.229C361.373,126.229 365.71,128.647 365.71,131.631Z" style="fill:none;stroke:rgb(24,22,71);stroke-width:0.75px;"/>
        <path d="M344.789,86.932L352.794,86.932C358.116,86.932 362.47,91.96 362.47,98.106L362.47,110.692C362.47,111.047 362.452,111.397 362.423,111.744C362.51,112.115 362.561,112.499 362.561,112.896L362.561,128.647C362.561,131.428 360.318,133.702 357.577,133.702L354.401,133.702C351.66,133.702 349.418,131.428 349.418,128.647L349.418,121.867L344.789,121.867C339.466,121.867 335.112,116.838 335.112,110.692L335.112,98.106C335.112,91.96 339.466,86.932 344.789,86.932Z" style="fill:rgb(251,192,160);fill-rule:nonzero;"/>
        <path d="M366.863,110.884C366.863,110.884 374.137,105.854 375.147,97.405C375.147,97.405 375.453,84.509 364.797,79.742C354.14,74.974 343.642,76.886 339.429,78.495C331.529,81.512 328.182,86.265 331.231,92.829C333.501,97.711 344.821,95.149 348.737,92.103C348.737,92.103 349.43,97.26 359.186,98.704L362.525,112.314L362.73,116.768L366.863,110.884Z" style="fill:rgb(36,92,171);fill-rule:nonzero;"/>
        <path d="M384.563,70.49C384.563,76.033 380.069,80.527 374.526,80.527C368.982,80.527 364.488,76.033 364.488,70.49C364.488,64.946 368.982,60.452 374.526,60.452C380.069,60.452 384.563,64.946 384.563,70.49Z" style="fill:rgb(36,92,171);fill-rule:nonzero;"/>
        <path d="M351.131,102.218C351.131,103.229 350.324,104.048 349.327,104.048C348.33,104.048 347.522,103.229 347.522,102.218C347.522,101.207 348.33,100.388 349.327,100.388C350.324,100.388 351.131,101.207 351.131,102.218Z" style="fill:rgb(0,0,1);fill-rule:nonzero;"/>
        <path d="M339.317,101.95C339.317,102.813 338.628,103.512 337.777,103.512C336.926,103.512 336.237,102.813 336.237,101.95C336.237,101.087 336.926,100.388 337.777,100.388C338.628,100.388 339.317,101.087 339.317,101.95Z" style="fill:rgb(0,0,1);fill-rule:nonzero;"/>
        <path d="M357.136,108.687C357.116,111.039 355.219,112.93 352.9,112.91C350.581,112.889 348.716,110.965 348.737,108.613C348.757,106.261 350.654,104.37 352.973,104.391C355.293,104.411 357.156,106.334 357.136,108.687Z" style="fill:rgb(244,131,121);fill-rule:nonzero;"/>
        <path d="M335.892,105.555C335.637,105.553 335.389,105.584 335.15,105.64L335.113,110.058C335.107,110.718 335.126,111.357 335.253,111.979C335.427,112.011 335.653,112.038 335.837,112.039C337.602,112.055 339.046,110.616 339.061,108.826C339.077,107.035 337.658,105.571 335.892,105.555Z" style="fill:rgb(244,131,121);fill-rule:nonzero;"/>
        <path d="M356.675,101.541C356.675,105.251 354.193,108.258 351.131,108.258C348.07,108.258 345.588,105.251 345.588,101.541C345.588,97.832 348.07,94.825 351.131,94.825C354.193,94.825 356.675,97.832 356.675,101.541Z" style="fill:none;stroke:rgb(239,70,83);stroke-width:0.75px;"/>
        <path d="M342.197,100.9C342.197,104.378 339.987,107.197 337.259,107.197C334.533,107.197 332.322,104.378 332.322,100.9C332.322,97.423 334.533,94.603 337.259,94.603C339.987,94.603 342.197,97.423 342.197,100.9Z" style="fill:none;stroke:rgb(239,70,83);stroke-width:0.75px;"/>
        <path d="M356.675,101.541L363.839,103.214" style="fill:none;stroke:rgb(239,70,83);stroke-width:0.75px;"/>
        <path d="M344.203,100.024L341.566,104.706L344.493,106.405" style="fill:rgb(251,192,160);fill-rule:nonzero;"/>
        <path d="M344.203,100.024L341.566,104.706L344.493,106.405" style="fill:none;stroke:rgb(0,0,1);stroke-width:0.75px;stroke-linecap:round;"/>
        <path d="M345.402,102.614C343.452,101.53 341.768,102.53 341.716,102.572L341.762,101.859C341.832,101.799 343.325,100.432 345.828,101.822L345.402,102.614Z" style="fill:rgb(239,70,83);fill-rule:nonzero;"/>
        <path d="M348.752,98.231C349.862,98.563 350.875,99.06 351.841,99.746C352.055,99.897 352.407,99.79 352.525,99.566C352.661,99.309 352.574,99.044 352.345,98.882C351.335,98.165 350.204,97.622 349.017,97.267C348.766,97.192 348.462,97.357 348.402,97.616C348.34,97.885 348.483,98.151 348.752,98.231Z" style="fill:rgb(0,0,1);fill-rule:nonzero;"/>
        <path d="M336.599,99.313C336.638,99.277 336.677,99.242 336.718,99.208C336.737,99.193 336.758,99.169 336.78,99.158C336.746,99.175 336.726,99.198 336.773,99.164C336.863,99.099 336.956,99.036 337.051,98.977C337.237,98.864 337.432,98.766 337.631,98.677C337.656,98.666 337.68,98.654 337.705,98.645C337.666,98.659 337.644,98.67 337.696,98.649C337.746,98.63 337.796,98.61 337.845,98.591C337.945,98.552 338.046,98.516 338.146,98.48C338.361,98.406 338.578,98.337 338.794,98.268C339.043,98.19 339.228,97.917 339.143,97.653C339.062,97.403 338.795,97.22 338.528,97.304C337.586,97.602 336.635,97.929 335.892,98.606C335.698,98.782 335.699,99.136 335.892,99.313C336.099,99.503 336.392,99.501 336.599,99.313Z" style="fill:rgb(0,0,1);fill-rule:nonzero;"/>
        <path d="M344.087,111.61C344.087,111.61 344.953,109.812 347.522,109.555" style="fill:none;stroke:rgb(0,0,1);stroke-width:0.75px;stroke-linecap:round;"/>
        <path d="M390.042,110.482C391.612,117.627 386.67,123.86 379.132,126.877C364.434,132.762 360.427,116.837 364.076,106.752C367.724,96.668 378.919,95.541 380.991,103.446C380.991,103.446 388.157,101.907 390.042,110.482Z" style="fill:rgb(36,92,171);fill-rule:nonzero;"/>
        <path d="M372.554,106.827C372.554,110.368 369.701,113.238 366.181,113.238C362.662,113.238 359.808,110.368 359.808,106.827C359.808,103.286 362.662,100.415 366.181,100.415C369.701,100.415 372.554,103.286 372.554,106.827Z" style="fill:rgb(251,192,160);fill-rule:nonzero;"/>
        <path d="M363.147,107.673C363.138,107.538 363.143,107.4 363.151,107.264C363.154,107.197 363.16,107.13 363.166,107.063C363.169,107.028 363.173,106.993 363.176,106.957C363.178,106.939 363.181,106.921 363.183,106.902C363.191,106.822 363.166,107.01 363.182,106.91C363.212,106.728 363.245,106.549 363.291,106.372C363.314,106.281 363.34,106.192 363.37,106.103C363.385,106.058 363.401,106.012 363.418,105.967C363.429,105.935 363.497,105.773 363.453,105.874C363.542,105.667 363.648,105.468 363.776,105.283C363.791,105.261 363.887,105.13 363.824,105.212C363.857,105.17 363.891,105.128 363.926,105.088C364.006,104.997 364.091,104.911 364.182,104.83C364.318,104.709 364.273,104.746 364.414,104.654C364.525,104.58 364.641,104.514 364.762,104.457C364.791,104.443 364.82,104.43 364.848,104.417C364.774,104.45 364.897,104.399 364.913,104.393C364.988,104.365 365.065,104.34 365.142,104.317C365.293,104.273 365.495,104.23 365.62,104.213C365.995,104.16 366.457,104.172 366.863,104.215C367.085,104.239 367.275,104.009 367.275,103.802C367.275,103.56 367.086,103.413 366.863,103.39C365.547,103.251 364.128,103.526 363.259,104.603C362.683,105.318 362.412,106.208 362.336,107.114C362.32,107.299 362.309,107.488 362.321,107.673C362.354,108.201 363.18,108.205 363.147,107.673Z" style="fill:rgb(244,131,121);fill-rule:nonzero;"/>
        <path d="M331.993,113.748C331.216,112.441 332.09,110.642 334.716,111.035C340.545,111.909 352.134,115.74 352.134,115.74C352.134,115.74 354.929,106.799 357.645,106.566C360.362,106.333 359.663,108.522 359.352,111.859C359.042,115.197 359.231,116.599 359.697,120.168C359.801,120.972 360.813,123.747 361.542,125.467C364.05,131.394 368.493,140.874 368.493,140.874L354.153,145.931L348.564,132.038C348.564,132.038 342.278,129.555 341.191,127.731C340.152,125.987 340.426,124.787 342.013,125.036C342.086,125.047 342.161,125.061 342.239,125.079C344.024,125.48 340.105,124.898 339.484,123.307C338.863,121.716 340.297,121.444 340.297,121.444C340.297,121.444 338.308,121.408 338.547,117.798C338.547,117.798 333.072,115.564 331.993,113.748Z" style="fill:rgb(251,192,160);fill-rule:nonzero;"/>
        <path d="M343.468,119.206C343.468,119.206 331.44,116.237 331.747,112.492C331.938,110.162 334.236,110.398 342.463,112.91C350.688,115.421 352.134,115.74 352.134,115.74C352.134,115.74 353.278,111.82 354.963,109.129C356.647,106.437 358.815,105.755 359.536,107.455C360.255,109.154 358.242,113.707 359.536,119.515C360.83,125.323 368.383,140.67 368.383,140.67" style="fill:none;stroke:rgb(244,131,121);stroke-width:0.75px;stroke-linecap:round;"/>
        <path d="M339.484,121.224L343.882,122.414" style="fill:none;stroke:rgb(244,131,121);stroke-width:0.75px;stroke-linecap:round;"/>
        <path d="M341.398,124.691L345.279,125.467" style="fill:none;stroke:rgb(244,131,121);stroke-width:0.75px;stroke-linecap:round;"/>
        <path d="M366.005,130.786C394.745,138.398 415.232,163.533 410.741,197.771C406.127,232.955 376.571,228.815 361.652,216.921C344.683,203.393 346.336,142.977 346.336,142.977L368.767,136.908L366.005,130.786Z" style="fill:white;fill-rule:nonzero;"/>
        <path d="M368.767,136.908L346.336,142.977C346.336,142.977 346.229,146.869 346.347,152.891L373.09,145.56L368.767,136.908Z" style="fill:rgb(239,70,83);fill-rule:nonzero;"/>
        <path d="M350.879,141.748L352.972,151.075L353.893,150.822L351.8,141.499L350.879,141.748Z" style="fill:white;fill-rule:nonzero;"/>
        <path d="M348.585,152.277L349.52,152.021L348.702,142.337L347.767,142.59L348.585,152.277Z" style="fill:white;fill-rule:nonzero;"/>
        <path d="M355.809,140.414L354.887,140.664L358.034,149.687L358.956,149.435L355.809,140.414Z" style="fill:white;fill-rule:nonzero;"/>
        <path d="M359.343,139.457L362.865,148.363L363.79,148.109L360.269,139.207L359.343,139.457Z" style="fill:white;fill-rule:nonzero;"/>
        <path d="M364.92,137.949L363.991,138.2L367.722,147.031L368.65,146.777L364.92,137.949Z" style="fill:white;fill-rule:nonzero;"/>
        <path d="M357.493,159.361C357.493,160.771 356.349,161.914 354.939,161.914C353.529,161.914 352.386,160.771 352.386,159.361C352.386,157.951 353.529,156.808 354.939,156.808C356.349,156.808 357.493,157.951 357.493,159.361Z" style="fill:rgb(239,70,83);fill-rule:nonzero;"/>
        <path d="M372.781,170.143C372.781,171.553 371.637,172.696 370.227,172.696C368.817,172.696 367.674,171.553 367.674,170.143C367.674,168.732 368.817,167.589 370.227,167.589C371.637,167.589 372.781,168.732 372.781,170.143Z" style="fill:rgb(239,70,83);fill-rule:nonzero;"/>
        <path d="M376.587,152.728C376.587,154.139 375.444,155.282 374.034,155.282C372.624,155.282 371.48,154.139 371.48,152.728C371.48,151.318 372.624,150.175 374.034,150.175C375.444,150.175 376.587,151.318 376.587,152.728Z" style="fill:rgb(239,70,83);fill-rule:nonzero;"/>
        <path d="M363.79,186.551C363.79,187.961 362.647,189.104 361.237,189.104C359.827,189.104 358.683,187.961 358.683,186.551C358.683,185.141 359.827,183.997 361.237,183.997C362.647,183.997 363.79,185.141 363.79,186.551Z" style="fill:rgb(239,70,83);fill-rule:nonzero;"/>
        <path d="M388.096,183.997C388.096,185.407 386.954,186.551 385.544,186.551C384.133,186.551 382.99,185.407 382.99,183.997C382.99,182.587 384.133,181.444 385.544,181.444C386.954,181.444 388.096,182.587 388.096,183.997Z" style="fill:rgb(239,70,83);fill-rule:nonzero;"/>
        <path d="M381.375,197.976C381.375,199.386 380.232,200.53 378.822,200.53C377.412,200.53 376.268,199.386 376.268,197.976C376.268,196.566 377.412,195.423 378.822,195.423C380.232,195.423 381.375,196.566 381.375,197.976Z" style="fill:rgb(239,70,83);fill-rule:nonzero;"/>
        <path d="M364.062,206.74C364.062,208.15 362.92,209.293 361.509,209.293C360.099,209.293 358.956,208.15 358.956,206.74C358.956,205.33 360.099,204.186 361.509,204.186C362.92,204.186 364.062,205.33 364.062,206.74Z" style="fill:rgb(239,70,83);fill-rule:nonzero;"/>
        <path d="M381.379,216.795C381.379,218.205 380.235,219.348 378.826,219.348C377.416,219.348 376.272,218.205 376.272,216.795C376.272,215.385 377.416,214.242 378.826,214.242C380.235,214.242 381.379,215.385 381.379,216.795Z" style="fill:rgb(239,70,83);fill-rule:nonzero;"/>
        <path d="M403.117,205.309C403.117,206.719 401.974,207.862 400.564,207.862C399.154,207.862 398.01,206.719 398.01,205.309C398.01,203.898 399.154,202.755 400.564,202.755C401.974,202.755 403.117,203.898 403.117,205.309Z" style="fill:rgb(239,70,83);fill-rule:nonzero;"/>
        <path d="M396.631,221.901C396.631,223.039 395.255,223.951 393.844,223.951C392.434,223.951 391.525,223.311 391.525,221.901C391.525,220.491 392.669,219.348 394.079,219.348C395.489,219.348 396.631,220.491 396.631,221.901Z" style="fill:rgb(239,70,83);fill-rule:nonzero;"/>
        <path d="M404.28,182.798C404.28,184.208 403.136,185.351 401.726,185.351C400.316,185.351 399.172,184.208 399.172,182.798C399.172,181.388 400.316,180.245 401.726,180.245C403.136,180.245 404.28,181.388 404.28,182.798Z" style="fill:rgb(239,70,83);fill-rule:nonzero;"/>
        <path d="M392.886,165.199C392.886,166.609 391.743,167.752 390.333,167.752C388.922,167.752 387.779,166.609 387.779,165.199C387.779,163.789 388.922,162.645 390.333,162.645C391.743,162.645 392.886,163.789 392.886,165.199Z" style="fill:rgb(239,70,83);fill-rule:nonzero;"/>
        <path d="M392.886,149.687C392.886,151.097 391.743,152.24 390.333,152.24C388.922,152.24 387.779,151.097 387.779,149.687C387.779,148.277 388.922,147.134 390.333,147.134C391.743,147.134 392.886,148.277 392.886,149.687Z" style="fill:rgb(239,70,83);fill-rule:nonzero;"/>
        <path d="M379.037,139.575C379.037,140.985 377.893,142.128 376.483,142.128C375.073,142.128 373.93,140.985 373.93,139.575C373.93,138.164 375.073,137.021 376.483,137.021C377.893,137.021 379.037,138.164 379.037,139.575Z" style="fill:rgb(239,70,83);fill-rule:nonzero;"/>
        <path d="M405.419,162.047C404.732,162.505 404.28,163.285 404.28,164.171C404.28,165.581 405.422,166.725 406.833,166.725C407.038,166.725 407.234,166.694 407.424,166.649C406.821,165.074 406.149,163.54 405.419,162.047Z" style="fill:rgb(239,70,83);fill-rule:nonzero;"/>
        <path d="M368.108,221.085C368.202,220.82 368.262,220.538 368.262,220.241C368.262,218.83 367.12,217.687 365.71,217.687C364.961,217.687 364.294,218.015 363.827,218.528C365.172,219.451 366.608,220.308 368.108,221.085Z" style="fill:rgb(239,70,83);fill-rule:nonzero;"/>
        <path d="M347.767,170.143C347.573,170.143 347.385,170.168 347.204,170.209C347.339,171.86 347.493,173.542 347.669,175.239C347.702,175.24 347.734,175.249 347.767,175.249C349.177,175.249 350.321,174.106 350.321,172.696C350.321,171.286 349.177,170.143 347.767,170.143Z" style="fill:rgb(239,70,83);fill-rule:nonzero;"/>
        <path d="M358.123,169.001C357.744,168.678 357.141,168.602 356.775,169.001C356.448,169.357 356.371,170.003 356.775,170.349C358.728,172.02 360.681,173.691 362.633,175.362C363.012,175.686 363.615,175.762 363.981,175.362C364.308,175.006 364.386,174.361 363.981,174.015C362.029,172.344 360.076,170.673 358.123,169.001Z" style="fill:rgb(65,104,177);fill-rule:nonzero;"/>
        <path d="M366.424,158.34C366.576,156.787 366.727,155.235 366.879,153.682C366.927,153.185 366.406,152.707 365.925,152.729C365.368,152.754 365.025,153.149 364.973,153.682C364.822,155.235 364.67,156.787 364.518,158.34C364.47,158.837 364.992,159.314 365.471,159.292C366.029,159.268 366.373,158.873 366.424,158.34Z" style="fill:rgb(65,104,177);fill-rule:nonzero;"/>
        <path d="M380.501,166.429C379.979,166.286 379.496,166.606 379.329,167.095C378.521,169.461 377.714,171.828 376.907,174.195C376.741,174.682 377.097,175.237 377.572,175.367C378.094,175.511 378.578,175.19 378.745,174.702C379.551,172.335 380.359,169.968 381.167,167.601C381.333,167.114 380.976,166.56 380.501,166.429Z" style="fill:rgb(65,104,177);fill-rule:nonzero;"/>
        <path d="M374.236,182.87C373.959,182.456 373.384,182.237 372.932,182.528C372.521,182.793 372.294,183.389 372.59,183.831C373.8,185.629 375.009,187.427 376.219,189.225C376.497,189.638 377.071,189.858 377.523,189.567C377.934,189.302 378.162,188.705 377.865,188.263C376.655,186.465 375.446,184.667 374.236,182.87Z" style="fill:rgb(65,104,177);fill-rule:nonzero;"/>
        <path d="M367.695,199.738C368.34,198.174 368.986,196.61 369.63,195.047C369.822,194.585 369.424,193.979 368.965,193.875C368.41,193.748 367.998,194.045 367.793,194.54C367.148,196.104 366.503,197.667 365.857,199.231C365.667,199.693 366.063,200.298 366.523,200.403C367.078,200.53 367.491,200.232 367.695,199.738Z" style="fill:rgb(65,104,177);fill-rule:nonzero;"/>
        <path d="M374.234,208.87C372.152,209.7 370.042,210.455 367.907,211.136C367.417,211.292 367.101,211.798 367.241,212.308C367.374,212.79 367.921,213.131 368.413,212.974C370.548,212.293 372.659,211.538 374.741,210.707C375.218,210.517 375.553,210.071 375.406,209.536C375.281,209.081 374.714,208.678 374.234,208.87Z" style="fill:rgb(65,104,177);fill-rule:nonzero;"/>
        <path d="M391.349,198.771C389.353,201.169 387.357,203.567 385.361,205.966C385.032,206.361 384.973,206.926 385.361,207.313C385.699,207.652 386.378,207.711 386.709,207.313C388.705,204.915 390.701,202.517 392.697,200.119C393.025,199.723 393.084,199.158 392.697,198.771C392.358,198.433 391.679,198.373 391.349,198.771Z" style="fill:rgb(65,104,177);fill-rule:nonzero;"/>
        <path d="M404.003,193.978C404.361,194.307 405.001,194.38 405.35,193.978C406.384,192.788 407.419,191.597 408.453,190.406C408.779,190.03 408.85,189.424 408.453,189.059C408.094,188.73 407.454,188.657 407.105,189.059C406.071,190.249 405.037,191.44 404.003,192.631C403.675,193.007 403.605,193.613 404.003,193.978Z" style="fill:rgb(65,104,177);fill-rule:nonzero;"/>
        <path d="M397.24,168.749C396.776,168.621 396.163,168.906 396.068,169.414C395.604,171.898 395.14,174.382 394.677,176.866C394.583,177.372 394.817,177.894 395.342,178.038C395.807,178.166 396.42,177.881 396.515,177.372C396.978,174.889 397.442,172.405 397.906,169.921C398,169.415 397.765,168.893 397.24,168.749Z" style="fill:rgb(65,104,177);fill-rule:nonzero;"/>
        <path d="M381.542,149.126C381.619,149.635 382.26,149.916 382.714,149.791C383.259,149.642 383.457,149.13 383.38,148.62C383.053,146.449 382.726,144.278 382.4,142.107C382.324,141.598 381.681,141.317 381.228,141.442C380.683,141.592 380.486,142.103 380.562,142.614C380.889,144.785 381.215,146.956 381.542,149.126Z" style="fill:rgb(65,104,177);fill-rule:nonzero;"/>
        <path d="M409.811,174.51C408.981,175.568 408.169,176.641 407.387,177.735C407.088,178.154 407.313,178.795 407.729,179.038C408.208,179.318 408.733,179.117 409.033,178.697C409.449,178.114 409.893,177.552 410.324,176.981C410.171,176.148 409.997,175.326 409.811,174.51Z" style="fill:rgb(65,104,177);fill-rule:nonzero;"/>
        <path d="M399.67,152.728C398.086,153.159 396.505,153.603 394.931,154.068C393.757,154.415 394.256,156.255 395.437,155.906C397.249,155.372 399.068,154.867 400.891,154.377C400.496,153.818 400.084,153.272 399.67,152.728Z" style="fill:rgb(65,104,177);fill-rule:nonzero;"/>
        <path d="M405.005,214.859C402.841,214.253 400.676,213.647 398.512,213.042C397.329,212.711 396.824,214.549 398.005,214.879C399.949,215.423 401.892,215.967 403.836,216.511C404.239,215.988 404.629,215.435 405.005,214.859Z" style="fill:rgb(65,104,177);fill-rule:nonzero;"/>
        <path d="M386.533,225.422C386.574,223.863 386.616,222.303 386.658,220.744C386.672,220.229 386.21,219.791 385.705,219.791C385.176,219.791 384.765,220.227 384.752,220.744C384.71,222.316 384.668,223.889 384.626,225.461C385.263,225.469 385.899,225.456 386.533,225.422Z" style="fill:rgb(65,104,177);fill-rule:nonzero;"/>
        <path d="M355.367,194.397C353.738,194.038 352.109,193.679 350.48,193.32C350.633,194.01 350.791,194.696 350.955,195.373C352.256,195.661 353.558,195.948 354.861,196.234C355.363,196.345 355.891,196.083 356.033,195.569C356.164,195.092 355.872,194.508 355.367,194.397Z" style="fill:rgb(65,104,177);fill-rule:nonzero;"/>
        <path d="M348.144,155.57C347.571,156.061 347.019,156.576 346.46,157.083C346.487,157.888 346.518,158.717 346.553,159.567C347.512,158.662 348.491,157.777 349.492,156.917C349.872,156.592 349.851,155.9 349.492,155.57C349.088,155.199 348.549,155.222 348.144,155.57Z" style="fill:rgb(65,104,177);fill-rule:nonzero;"/>
        <path d="M383.814,157.489C382.302,157.621 380.795,157.783 379.288,157.959L380.185,159.754C381.393,159.621 382.603,159.5 383.814,159.395C384.327,159.351 384.767,158.989 384.767,158.442C384.767,157.961 384.33,157.444 383.814,157.489Z" style="fill:rgb(65,104,177);fill-rule:nonzero;"/>
        <path d="M389.051,175.94L368.767,136.908L346.336,142.977C346.336,142.977 344.683,203.393 361.652,216.921C376.571,228.815 406.127,232.955 410.741,197.771C415.232,163.533 394.449,138.281 365.71,130.669" style="fill:none;stroke:rgb(24,22,71);stroke-width:1px;stroke-linecap:round;"/>
        <path d="M265.209,111.886C263.576,110.87 261.117,114.24 259.551,116.326C261.453,113.586 265.039,108.272 263.154,107.644C261.581,107.12 259.005,109.849 257.398,112.125C259.152,109.165 262.101,105.904 260.112,105.05C258.489,104.353 254.682,109.118 252.891,111.537C254.662,109.002 258.836,103.903 255.936,103.345C253.12,102.803 241.714,117.599 241.714,117.599L243.796,113.806C243.796,113.806 247.118,108.05 245.326,107.284C243.534,106.518 236.477,113.986 234.797,117.235C233.116,120.483 233.452,128.101 233.452,128.101L225.387,138.294L242.47,148.991L249.134,137.061C262.464,123.172 266.765,112.855 265.209,111.886Z" style="fill:rgb(251,192,160);fill-rule:nonzero;"/>
        <path d="M243.27,127.843C243.27,127.843 243.636,121.996 240.742,119.468L243.692,114.095" style="fill:none;stroke:rgb(244,131,121);stroke-width:0.75px;stroke-linecap:round;"/>
        <path d="M251.013,114.095L255.773,107.644" style="fill:none;stroke:rgb(244,131,121);stroke-width:0.75px;stroke-linecap:round;"/>
        <path d="M259.462,109.197L254.117,116.781" style="fill:none;stroke:rgb(244,131,121);stroke-width:0.75px;stroke-linecap:round;"/>
        <path d="M262.314,112.71L256.79,119.942" style="fill:none;stroke:rgb(244,131,121);stroke-width:0.75px;stroke-linecap:round;"/>
        <path d="M226.882,129.927L199.917,158.141C181.188,143.434 165.789,133.295 156.294,128.938C150.637,126.342 145.628,126.963 145.628,126.963L160.777,179.955C160.777,179.955 185.217,210.406 208.815,204.615C232.413,198.824 249.2,143.349 249.2,143.349L226.882,129.927Z" style="fill:rgb(65,104,177);fill-rule:nonzero;"/>
        <path d="M160.777,179.955C160.777,179.955 185.217,210.406 208.815,204.615C232.413,198.825 249.2,143.349 249.2,143.349L226.882,129.927" style="fill:none;stroke:rgb(24,22,71);stroke-width:0.75px;stroke-linecap:round;stroke-linejoin:round;"/>
        <path d="M224.67,134.281L244.712,147.086" style="fill:none;stroke:rgb(24,22,71);stroke-width:0.75px;stroke-linecap:round;stroke-linejoin:round;"/>
        <path d="M199.917,158.141L203.463,171.63" style="fill:none;stroke:rgb(24,22,71);stroke-width:0.75px;stroke-linecap:round;stroke-linejoin:round;"/>
        <path d="M192.745,395.158L202.145,433.474L177.214,435.76L168.468,398.049L192.745,395.158Z" style="fill:rgb(179,105,89);fill-rule:nonzero;"/>
        <path d="M207.242,425.92L167.876,428.281L172.659,456.331L239.77,456.001L214.202,441.581L207.242,425.92Z" style="fill:white;fill-rule:nonzero;"/>
        <path d="M207.242,425.92L167.876,428.281L172.659,456.331L239.77,456.001L214.202,441.581L207.242,425.92Z" style="fill:none;stroke:black;stroke-width:1px;"/>
        <path d="M225.499,445.888L219.647,449.674" style="fill:none;stroke:black;stroke-width:1px;stroke-linecap:round;"/>
        <path d="M220.888,442.101L215.037,445.888" style="fill:none;stroke:black;stroke-width:1px;stroke-linecap:round;"/>
        <path d="M197.172,441.297C197.172,445.371 193.87,448.672 189.798,448.672C185.725,448.672 182.423,445.371 182.423,441.297C182.423,437.225 185.725,433.923 189.798,433.923C193.87,433.923 197.172,437.225 197.172,441.297Z" style="fill:rgb(36,92,171);fill-rule:nonzero;"/>
        <path d="M123.064,395.91L123.442,435.361L98.65,431.878L98.769,393.166L123.064,395.91Z" style="fill:rgb(179,105,89);fill-rule:nonzero;"/>
        <path d="M131.116,427.257L92.776,428.11L89.886,456.331L156.997,456.001L131.43,441.581L131.116,427.257Z" style="fill:white;fill-rule:nonzero;"/>
        <path d="M131.116,427.257L92.776,428.11L89.886,456.331L156.997,456.001L131.43,441.581L131.116,427.257Z" style="fill:none;stroke:black;stroke-width:1px;"/>
        <path d="M142.726,445.888L136.875,449.674" style="fill:none;stroke:black;stroke-width:1px;stroke-linecap:round;"/>
        <path d="M138.116,442.101L132.264,445.888" style="fill:none;stroke:black;stroke-width:1px;stroke-linecap:round;"/>
        <path d="M116.973,442.162C116.973,446.235 113.672,449.536 109.599,449.536C105.526,449.536 102.224,446.235 102.224,442.162C102.224,438.089 105.526,434.788 109.599,434.788C113.672,434.788 116.973,438.089 116.973,442.162Z" style="fill:rgb(36,92,171);fill-rule:nonzero;"/>
        <path d="M135.429,260.913L160.564,413.235L213.193,408.996L176.959,227.228L128.598,227.228L135.429,260.913Z" style="fill:white;fill-rule:nonzero;"/>
        <path d="M184.067,400.79L184.067,383.313L201.66,383.313L201.66,400.79L184.067,400.79ZM184.067,364.866L201.66,364.866L201.66,382.343L184.067,382.343L184.067,364.866ZM183.096,290.105L165.503,290.105L165.503,272.628L183.096,272.628L183.096,290.105ZM183.096,308.553L165.503,308.553L165.503,291.076L183.096,291.076L183.096,308.553ZM183.096,327L165.503,327L165.503,309.523L183.096,309.523L183.096,327ZM183.096,345.448L165.503,345.448L165.503,327.97L183.096,327.97L183.096,345.448ZM183.096,363.895L165.503,363.895L165.503,346.418L183.096,346.418L183.096,363.895ZM183.096,382.343L165.503,382.343L165.503,364.866L183.096,364.866L183.096,382.343ZM183.096,400.79L165.503,400.79L165.503,383.313L183.096,383.313L183.096,400.79ZM164.533,253.21L146.939,253.21L146.939,235.733L164.533,235.733L164.533,253.21ZM164.533,271.658L146.939,271.658L146.939,254.181L164.533,254.181L164.533,271.658ZM164.533,290.105L146.939,290.105L146.939,272.628L164.533,272.628L164.533,290.105ZM164.533,308.553L146.939,308.553L146.939,291.076L164.533,291.076L164.533,308.553ZM164.533,327L146.939,327L146.939,309.523L164.533,309.523L164.533,327ZM202.63,409.847L202.63,401.76L211.751,401.76L211.558,400.79L202.63,400.79L202.63,383.313L208.073,383.313L207.88,382.343L202.63,382.343L202.63,364.866L204.396,364.866L204.203,363.895L202.63,363.895L202.63,356.005L201.66,351.139L201.66,363.895L184.067,363.895L184.067,346.418L200.719,346.418L200.526,345.448L184.067,345.448L184.067,327.97L197.041,327.97L196.848,327L184.067,327L184.067,309.523L193.364,309.523L193.171,308.553L184.067,308.553L184.067,291.076L189.687,291.076L189.493,290.105L184.067,290.105L184.067,272.628L186.009,272.628L185.816,271.658L184.067,271.658L184.067,262.883L183.096,258.017L183.096,271.658L165.503,271.658L165.503,254.181L182.332,254.181L182.138,253.21L165.503,253.21L165.503,235.733L178.654,235.733L178.461,234.763L165.503,234.763L165.503,227.228L164.533,227.228L164.533,234.763L146.939,234.763L146.939,227.228L145.969,227.228L145.969,234.763L130.126,234.763L130.323,235.733L145.969,235.733L145.969,253.21L133.867,253.21L134.064,254.181L145.969,254.181L145.969,271.658L137.202,271.658L137.362,272.628L145.969,272.628L145.969,290.105L140.246,290.105L140.406,291.076L145.969,291.076L145.969,308.553L143.29,308.553L143.45,309.523L145.969,309.523L145.969,324.789L146.939,330.667L146.939,327.97L164.533,327.97L164.533,345.448L149.379,345.448L149.538,346.418L164.533,346.418L164.533,363.895L152.422,363.895L152.583,364.866L164.533,364.866L164.533,382.343L155.466,382.343L155.627,383.313L164.533,383.313L164.533,400.79L158.511,400.79L158.671,401.76L164.533,401.76L164.533,412.915L165.503,412.836L165.503,401.76L183.096,401.76L183.096,411.42L184.067,411.342L184.067,401.76L201.66,401.76L201.66,409.925L202.63,409.847Z" style="fill:rgb(239,70,83);fill-rule:nonzero;"/>
        <path d="M135.631,262.028L160.564,413.235L213.193,408.996L176.959,227.228" style="fill:none;stroke:rgb(24,22,71);stroke-width:1px;stroke-linecap:round;"/>
        <path d="M151.381,255.843L143.185,256.554L138.318,322" style="fill:none;stroke:rgb(38,70,49);stroke-width:0.25px;"/>
        <path d="M151.381,255.843L143.185,256.554L135.631,410.7L81.048,409.951L103.862,240.209L106.311,224.159L162.442,208.824L151.381,255.843Z" style="fill:white;fill-rule:nonzero;"/>
        <path d="M128.376,253.21L128.376,235.733L145.969,235.733L145.969,253.21L128.376,253.21ZM127.405,253.21L109.813,253.21L109.813,235.733L127.405,235.733L127.405,253.21ZM127.405,271.658L109.813,271.658L109.813,254.181L127.405,254.181L127.405,271.658ZM127.405,290.105L109.813,290.105L109.813,272.628L127.405,272.628L127.405,290.105ZM127.405,308.553L109.813,308.553L109.813,291.076L127.405,291.076L127.405,308.553ZM127.405,327L109.813,327L109.813,309.523L127.405,309.523L127.405,327ZM127.405,345.448L109.813,345.448L109.813,327.97L127.405,327.97L127.405,345.448ZM127.405,363.895L109.813,363.895L109.813,346.418L127.405,346.418L127.405,363.895ZM127.405,382.343L109.813,382.343L109.813,364.866L127.405,364.866L127.405,382.343ZM127.405,400.79L109.813,400.79L109.813,383.313L127.405,383.313L127.405,400.79ZM108.842,363.895L91.249,363.895L91.249,346.418L108.842,346.418L108.842,363.895ZM108.842,382.343L91.249,382.343L91.249,364.866L108.842,364.866L108.842,382.343ZM108.842,400.79L91.249,400.79L91.249,383.313L108.842,383.313L108.842,400.79ZM146.939,256.228L146.939,254.181L151.772,254.181L152,253.21L146.939,253.21L146.939,235.733L156.111,235.733L156.339,234.763L146.939,234.763L146.939,217.286L160.451,217.286L160.679,216.316L146.939,216.316L146.939,213.059L145.969,213.324L145.969,216.316L135.019,216.316L131.468,217.286L145.969,217.286L145.969,234.763L128.376,234.763L128.376,218.131L127.405,218.396L127.405,234.763L109.813,234.763L109.813,223.202L108.842,223.467L108.842,234.763L104.693,234.763L104.545,235.733L108.842,235.733L108.842,253.21L102.115,253.21L101.985,254.181L108.842,254.181L108.842,271.658L99.635,271.658L99.505,272.628L108.842,272.628L108.842,290.105L97.155,290.105L97.025,291.076L108.842,291.076L108.842,308.553L94.676,308.553L94.546,309.523L108.842,309.523L108.842,327L92.197,327L92.067,327.97L108.842,327.97L108.842,345.448L91.249,345.448L91.249,334.055L90.278,341.273L90.278,345.448L89.717,345.448L89.587,346.418L90.278,346.418L90.278,363.895L87.238,363.895L87.108,364.866L90.278,364.866L90.278,382.343L84.758,382.343L84.628,383.313L90.278,383.313L90.278,400.79L82.279,400.79L82.149,401.76L90.278,401.76L90.278,410.078L91.249,410.09L91.249,401.76L108.842,401.76L108.842,410.332L109.813,410.346L109.813,401.76L127.405,401.76L127.405,410.587L128.376,410.6L128.376,401.76L136.069,401.76L136.117,400.79L128.376,400.79L128.376,383.313L136.973,383.313L137.021,382.343L128.376,382.343L128.376,364.866L137.877,364.866L137.925,363.895L128.376,363.895L128.376,346.418L138.781,346.418L138.829,345.448L128.376,345.448L128.376,327.97L139.685,327.97L139.733,327L128.376,327L128.376,309.523L140.589,309.523L140.636,308.553L128.376,308.553L128.376,291.076L141.493,291.076L141.541,290.105L128.376,290.105L128.376,272.628L142.397,272.628L142.444,271.658L128.376,271.658L128.376,254.181L145.969,254.181L145.969,256.313L146.939,256.228Z" style="fill:rgb(239,70,83);fill-rule:nonzero;"/>
        <path d="M151.381,255.843L143.185,256.554L135.631,410.7L81.048,409.951L106.311,224.159" style="fill:none;stroke:rgb(24,22,71);stroke-width:1px;stroke-linecap:round;"/>
        <path d="M189.541,251.122L179.55,163.392C179.55,142.761 162.826,126.036 142.195,126.036C121.564,126.036 104.839,142.761 104.839,163.392L95.074,249.823L189.541,251.122Z" style="fill:rgb(65,104,177);fill-rule:nonzero;"/>
        <path d="M100.247,204.046L95.074,249.823L189.541,251.122L180.98,175.94" style="fill:none;stroke:rgb(24,22,71);stroke-width:0.75px;stroke-linecap:round;stroke-linejoin:round;"/>
        <path d="M156.932,134.501C153.851,139.403 148.394,142.661 142.177,142.661C135.699,142.661 130.048,139.124 127.047,133.878" style="fill:none;stroke:rgb(24,22,71);stroke-width:0.75px;stroke-linecap:round;"/>
        <path d="M133.709,106.843L133.709,95.13C133.709,88.405 138.542,82.903 144.449,82.903L153.333,82.903C159.24,82.903 164.072,88.405 164.072,95.13L164.072,108.902C164.072,115.627 159.24,121.129 153.333,121.129L150.487,121.129L150.487,126.881C150.487,129.783 148.135,132.134 145.234,132.134L138.861,132.134C135.961,132.134 133.609,129.783 133.609,126.881L133.609,107.839C133.609,107.497 133.647,107.166 133.709,106.843Z" style="fill:rgb(251,192,160);fill-rule:nonzero;"/>
        <path d="M146.482,99.629C146.482,100.735 147.379,101.632 148.484,101.632C149.59,101.632 150.487,100.735 150.487,99.629C150.487,98.524 149.59,97.627 148.484,97.627C147.379,97.627 146.482,98.524 146.482,99.629Z" style="fill:rgb(0,1,24);fill-rule:nonzero;"/>
        <path d="M159.593,99.336C159.593,100.28 160.359,101.045 161.302,101.045C162.247,101.045 163.012,100.28 163.012,99.336C163.012,98.392 162.247,97.627 161.302,97.627C160.359,97.627 159.593,98.392 159.593,99.336Z" style="fill:rgb(0,1,24);fill-rule:nonzero;"/>
        <path d="M149.163,95.09C148.187,95.097 147.211,95.281 146.306,95.646C146.064,95.744 145.867,95.984 145.957,96.261C146.032,96.495 146.312,96.715 146.572,96.61C146.996,96.439 147.435,96.306 147.883,96.216C147.991,96.194 148.099,96.175 148.208,96.158C148.233,96.154 148.258,96.15 148.283,96.146C148.234,96.153 148.24,96.152 148.301,96.144C148.352,96.138 148.402,96.132 148.453,96.127C148.689,96.103 148.926,96.092 149.163,96.09C149.424,96.088 149.675,95.861 149.663,95.59C149.651,95.321 149.443,95.088 149.163,95.09Z" style="fill:rgb(0,1,24);fill-rule:nonzero;"/>
        <path d="M162.708,95.566C162.054,95.179 161.327,94.905 160.577,94.777C160.441,94.754 160.315,94.755 160.192,94.828C160.088,94.888 159.989,95.007 159.962,95.126C159.906,95.369 160.035,95.694 160.311,95.741C160.659,95.801 161.002,95.89 161.335,96.011C161.418,96.041 161.505,96.071 161.586,96.109C161.464,96.052 161.577,96.106 161.598,96.115C161.642,96.135 161.685,96.155 161.729,96.176C161.891,96.253 162.049,96.338 162.203,96.43C162.428,96.563 162.762,96.488 162.887,96.25C163.015,96.01 162.948,95.709 162.708,95.566Z" style="fill:rgb(0,1,24);fill-rule:nonzero;"/>
        <path d="M155.523,98.13C156.199,99.875 157.068,101.535 158.073,103.111C158.123,102.989 158.173,102.866 158.223,102.744C156.984,102.911 155.746,103.078 154.508,103.245C154.191,103.288 154.326,103.769 154.641,103.727C155.88,103.56 157.117,103.393 158.356,103.226C158.515,103.205 158.583,102.981 158.505,102.859C157.523,101.32 156.665,99.701 156.005,97.997C155.889,97.701 155.406,97.83 155.523,98.13Z" style="fill:rgb(0,1,24);fill-rule:nonzero;"/>
        <path d="M149.915,106.635C149.915,106.635 150.939,111.09 156.93,110.246" style="fill:none;stroke:rgb(0,1,24);stroke-width:0.5px;stroke-linecap:round;"/>
        <path d="M136.218,103.089L137.859,92.302C137.859,92.302 151.701,94.895 163.283,91C167.681,89.521 171.754,87.105 174.617,83.257C184.257,70.305 173.532,65.213 168.613,66.033C163.693,66.853 161.296,70 161.296,70C161.296,70 164.165,65.278 159.587,64.295C155.007,63.31 151.658,66.557 149.022,71.476C149.022,71.476 129.349,69.642 122.699,81.546C116.048,93.45 121.438,101.895 133.602,114.194L134.711,107.315L136.218,103.089Z" style="fill:rgb(138,63,66);fill-rule:nonzero;"/>
        <path d="M148.583,106.814C148.583,109.02 146.795,110.809 144.589,110.809C142.382,110.809 140.594,109.02 140.594,106.814C140.594,104.608 142.382,102.82 144.589,102.82C146.795,102.82 148.583,104.608 148.583,106.814Z" style="fill:rgb(244,131,121);fill-rule:nonzero;"/>
        <path d="M160.444,106.814C160.444,108.848 161.969,110.507 163.934,110.758C164.017,110.151 164.072,109.534 164.072,108.902L164.072,102.857C162.041,103.044 160.444,104.733 160.444,106.814Z" style="fill:rgb(244,131,121);fill-rule:nonzero;"/>
        <path d="M122.706,104.672C122.706,108.547 125.872,111.688 129.779,111.688C133.685,111.688 136.852,108.547 136.852,104.672C136.852,100.797 133.685,97.657 129.779,97.657C125.872,97.657 122.706,100.797 122.706,104.672Z" style="fill:rgb(251,192,160);fill-rule:nonzero;"/>
        <path d="M134.018,105.599C134.124,103.924 133.333,102.036 131.753,101.313C130.897,100.923 129.948,100.853 129.022,100.95C128.8,100.973 128.608,101.123 128.608,101.363C128.608,101.568 128.798,101.799 129.022,101.776C129.787,101.696 130.518,101.72 131.236,101.985C131.335,102.022 131.427,102.066 131.559,102.138C131.686,102.207 131.809,102.286 131.925,102.373C131.872,102.333 132.002,102.436 132.019,102.451C132.066,102.492 132.111,102.534 132.156,102.577C132.251,102.669 132.339,102.768 132.422,102.872C132.369,102.805 132.469,102.936 132.484,102.958C132.518,103.006 132.549,103.054 132.581,103.103C132.647,103.209 132.708,103.318 132.763,103.43C132.79,103.485 132.816,103.54 132.84,103.596C132.868,103.657 132.804,103.504 132.844,103.603C132.854,103.628 132.864,103.653 132.874,103.679C132.917,103.792 132.956,103.907 132.991,104.023C133.049,104.219 133.095,104.418 133.13,104.619C133.137,104.663 133.143,104.706 133.151,104.75C133.17,104.872 133.143,104.672 133.156,104.79C133.165,104.874 133.174,104.957 133.18,105.041C133.194,105.226 133.204,105.414 133.192,105.599C133.158,106.129 133.984,106.127 134.018,105.599Z" style="fill:rgb(244,131,121);fill-rule:nonzero;"/>
        <path d="M142.177,137.642C148.063,137.642 152.98,133.537 154.248,128.035C150.465,126.746 146.414,126.036 142.195,126.036C137.964,126.036 133.901,126.75 130.108,128.047C131.38,133.542 136.295,137.642 142.177,137.642Z" style="fill:rgb(251,192,160);fill-rule:nonzero;"/>
        <path d="M172.099,210.529C172.099,210.529 179.312,206.955 178.959,205.07C178.423,202.206 167.328,206.217 164.941,206.614C162.553,207.011 155.141,209.533 152.139,210.639C149.138,211.746 143.316,212.629 143.316,212.629L141.902,228.247C141.902,228.247 161.256,231.052 171.491,231.001C181.726,230.951 190.456,228.8 190.598,226.412C190.741,224.023 187.777,225.301 187.777,225.301C187.777,225.301 192.396,223.87 192.436,222.418C192.475,220.967 188.709,221.098 188.709,221.098C188.709,221.098 194.287,219.898 194.276,217.882C194.265,215.866 187.17,216.992 187.17,216.992C187.17,216.992 192.828,215.307 192.218,213.471C191.608,211.634 182.268,212.769 175.712,213.515C169.155,214.26 170.028,211.651 172.099,210.529Z" style="fill:rgb(251,192,160);fill-rule:nonzero;"/>
        <path d="M188.865,224.639C185.813,225.467 182.666,225.834 179.505,225.732C179.022,225.717 179.023,226.467 179.505,226.482C182.729,226.586 185.952,226.207 189.065,225.362C189.53,225.236 189.332,224.512 188.865,224.639Z" style="fill:rgb(244,131,121);fill-rule:nonzero;"/>
        <path d="M190.666,219.941C187.345,220.655 183.981,221.126 180.591,221.351C180.112,221.383 180.109,222.133 180.591,222.101C184.046,221.872 187.48,221.392 190.865,220.664C191.337,220.563 191.137,219.84 190.666,219.941Z" style="fill:rgb(244,131,121);fill-rule:nonzero;"/>
        <path d="M189.367,215.981C186.129,216.357 182.89,216.732 179.651,217.107C179.177,217.163 179.172,217.913 179.651,217.857C182.89,217.482 186.129,217.107 189.367,216.731C189.841,216.677 189.847,215.926 189.367,215.981Z" style="fill:rgb(244,131,121);fill-rule:nonzero;"/>
        <path d="M107.076,199.12L112.335,199.754L114.525,175.94L76.975,180.197C64.675,207.992 71.353,229.826 84.333,234.546C123.167,248.667 151.856,232.717 151.856,232.717L151.856,204.521L107.076,199.12Z" style="fill:rgb(65,104,177);fill-rule:nonzero;"/>
        <path d="M76.975,180.197C64.675,207.992 71.353,229.826 84.333,234.546C123.167,248.667 151.856,232.717 151.856,232.717L151.856,204.521L107.076,199.12" style="fill:none;stroke:rgb(24,22,71);stroke-width:0.75px;stroke-linecap:round;"/>
        <path d="M114.525,175.94L112.335,199.754" style="fill:none;stroke:rgb(24,22,71);stroke-width:0.75px;stroke-linecap:round;"/>
        <path d="M145.224,206.921C145.224,207.395 144.434,232.521 144.434,232.521" style="fill:none;stroke:rgb(24,22,71);stroke-width:0.75px;stroke-linecap:round;"/>
        <path d="M41.57,456.551L453.067,456.551" style="fill:none;stroke:rgb(0,1,24);stroke-width:1px;stroke-linecap:round;"/>
    </g>
</svg>
